<?xml version="1.0" encoding="utf-8"?>
<!-- Generator: Adobe Illustrator 21.0.2, SVG Export Plug-In . SVG Version: 6.00 Build 0)  -->
<svg version="1.1" id="Calque_1" xmlns="http://www.w3.org/2000/svg" xmlns:xlink="http://www.w3.org/1999/xlink" x="0px" y="0px"
	 viewBox="0 0 130.7 98" style="enable-background:new 0 0 130.7 98;" xml:space="preserve">
<path d="M118.4,0H12.3C5.5,0,0,5.5,0,12.3v73.5C0,92.5,5.5,98,12.3,98h106.2c6.8,0,12.3-5.5,12.3-12.3V12.3
	C130.7,5.5,125.2,0,118.4,0z M118.4,12.3v10.4c-5.7,4.7-14.8,11.9-34.3,27.2c-4.3,3.4-12.8,11.5-18.7,11.4
	c-5.9,0.1-14.4-8-18.7-11.4C27.1,34.6,18,27.3,12.3,22.7V12.3H118.4z M12.3,85.8V38.4C18.1,43,26.4,49.6,39,59.5
	c5.6,4.4,15.3,14.1,26.3,14c10.9,0.1,20.5-9.5,26.3-14c12.6-9.9,20.9-16.4,26.8-21.1v47.4H12.3z"/>
</svg>
