<?xml version="1.0" encoding="utf-8"?>
<!-- Generator: Adobe Illustrator 21.0.2, SVG Export Plug-In . SVG Version: 6.00 Build 0)  -->
<svg version="1.1" id="Calque_1" xmlns="http://www.w3.org/2000/svg" xmlns:xlink="http://www.w3.org/1999/xlink" x="0px" y="0px"
	 viewBox="0 0 261.8 295.2" style="enable-background:new 0 0 261.8 295.2;" xml:space="preserve">
<style type="text/css">
	.st0{fill:#FFFFFF;}
</style>
<circle class="st0" cx="132.8" cy="149.6" r="97.9"/>
<g>
	<g>
		<path d="M241.2,139.2c-0.1-1-0.4-2-0.7-3.2c-0.3-1.1-0.6-2.3-0.9-3.5c-0.3-1.2-0.7-2.3-1.1-3.2l-8.8-29l-1.4-2.7
			c-0.3-0.8-0.9-1.8-1.7-3.2c-0.8-1.4-1.7-2.7-2.6-4.1c-0.9-1.4-1.8-2.6-2.6-3.7s-1.4-1.8-1.7-2.2c-2.3-2.9-4.3-5.8-6-8.7
			c-1.7-2.9-4.1-5.6-7.1-8c-3.6-2.4-7.2-4.6-10.9-6.7c-3.6-2-7.3-4.1-11.1-6.2l-2.5-2.5c-0.7-0.8-1.4-1.4-2-1.9s-1-0.8-1.4-0.8h-8.6
			c-4.4-1.2-8.7-2.5-13.1-4c-4.4-1.4-8.7-2.2-13.1-2.2c-0.6,0-1.4,0-2.4,0.1s-2.2,0.4-3.5,1h-23.1c-0.5,0-1.2,0.1-2.3,0.2
			c-1,0.2-2.2,0.4-3.4,0.7c-1.2,0.3-2.4,0.6-3.5,0.9c-1.1,0.3-2,0.6-2.6,0.9L90.9,52h-3.4l-3.6,1.6L79.5,58
			c-0.7,0.8-1.6,1.2-2.5,1.5c-0.9,0.2-1.8,0.5-2.6,0.7c-0.8,0.2-1.7,0.5-2.6,0.9s-1.7,1-2.5,1.9L56,72.5c-0.5,0.3-0.9,0.7-1.4,1.2
			s-0.9,1.1-1.4,1.7c-0.6,0.6-1.1,1.3-1.6,2L49,82.2l-6.3,7.5c-4.1,7.7-7.7,15.2-10.9,22.5s-5.8,15-7.9,23L22,155.1l1.8,17.7
			c0,3,0.5,5.8,1.4,8.3s2,4.9,3.3,7.4c1.3,2.4,2.7,4.8,4.3,7c1.6,2.3,3.1,4.6,4.4,7c1.7,2.1,3.4,4.4,5.1,6.8
			c1.7,2.4,3.4,5.1,5.1,8.1c1.8,2.7,3.6,5.5,5.4,8.5c1.8,2.9,4.1,5.2,6.8,6.7l5.4,2.5l19.2,13.4c8.5-2,32-8.1,36.3-15.7
			c0,0-14.8,1-16.7-3.6c0,0,34.5-6.7,47.7-36.8c0,0-10.3,7.1-18.9,3.1s-11.9-11.9-27-19.2s-28.3-8.9-22.6-19.2
			c0.4-0.7,0.9-1.3,1.4-1.7c4.7,0,13.9,2.9,23.7,8.3c0,0,4.8,2.6,5.5,3.2c0,0,4.3,4.4,9.3,6.6c10.1,4.6,12.6-4.3,12.6-4.3
			s6.6-9.7-6.7-26.9C110,120,85.5,129.2,85.5,129.2c-1.2,0-2.4-0.2-3.7-0.8c-3.8-1.9-8.1-17.4-6.6-21.2c1.5-3.9,3.8-4.1,7.7-4
			c4,0.2,31.6-0.8,42.8,6c0,0,8.2-8,27.5-0.3c19.2,7.7,29.2,14,29.2,14s34.5-7.9,41.8-7.3c0,0-11.5,9.6-13.2,15.8
			c-1.7,6.2-6.9,15.9-9.4,17.7c0,0,8.5,3.7,17.3,36.4c3,11.1,4.8,18.7,6.1,24c1.1-1.5,2.2-2.9,3.3-4.4l11.8-34.6V154l1.4-5.7v-7.2
			C241.4,140.8,241.3,140.2,241.2,139.2z M125,214.2c7.9-3.5,16-12.8,16-12.8s-12.1,19.3-32,19.3C109,220.6,117.1,217.7,125,214.2z
			 M104.2,196.5c0,0,0.9-1.2,1.3,0s-0.1,0.8-1.2,0.8C103.2,197.3,104.3,197.3,104.2,196.5z M94.6,236.6c-0.5,0.5,0.1,2.4-0.8,2.6
			c-0.8,0.2-0.4-4.2-0.8-5.3C92.9,233.9,95,236,94.6,236.6z M65.9,85.7c0,0,1.6-0.3,1.7,0.9c0.1,1.2-0.4,0.6-1.2,0.4
			C65.6,86.9,65.9,86.6,65.9,85.7z M50.1,186.4c-0.7,0.1-1-0.3-1.9-1.3c0,0,1.3-1.3,1.9-0.6C50.7,185.3,50.8,186.3,50.1,186.4z
			 M71.7,222.4c-1.3-0.2,0,0-0.7-1.1c0,0,2.2,0,2,1.3C72.8,223.8,73,222.6,71.7,222.4z M96.3,156.2c0,0,1.3-3.4,4.3-3.4
			c0,0-0.4,3.4,2,4.6C102.6,157.4,99.8,159.8,96.3,156.2z M110.9,163.4c0,0-6.6-2.5-4.7-4.1c0,0,3.6-3.4,4.7-2.9
			C110.9,156.5,108.4,161.8,110.9,163.4z M116.9,167.4c0,0-3.3-2-3.1-2.8l0.2-0.9c0,0,1.5-2.3,4.1-0.8
			C118.1,163,116,165.2,116.9,167.4z M123.1,139.6c3.1,0.2,2.7,2.6,2.7,2.6c-2.7-0.5-2.2,4.8-2.7,1.6
			C122.6,140.6,123.1,139.6,123.1,139.6z M113,133.4c5,0,7.1,3.8,7.1,3.8c-3.3-2.4-7.1,3.6-7.1,3.6C110.1,136.7,113,133.4,113,133.4
			z M103.3,128.8c7.1,1.6,4.7,3.8,4.7,3.8c-3.3,1.4-4.7,3.8-4.7,3.8C101.8,132.7,103.3,128.8,103.3,128.8z M101.8,145.1
			c9.6,4.8,13,10.4,14.1,13.2c-1.2-2.4-4.6-6.9-14.7-12.1C86,138.5,72.9,154,55,145.5c-7.8-3.9-7-11.9-6.5-12.9
			c0.6-1.1,1-3.5,4.5-1.8s0.2,5.1,7.1,8.7C72.6,145.4,78.8,133.5,101.8,145.1z M114.4,97.5c-0.6-0.9-0.4-1.3,0-2.4l1.3,1.2
			C115.7,96.3,115.1,98.3,114.4,97.5z M136.6,54.5c-8.3-0.3-13.6,0.2-13.6,0.2C127.2,54.1,131.8,54.1,136.6,54.5
			c15.9,0.6,42.3,4.4,61.8,21.5C198.4,76.1,164.3,57.2,136.6,54.5z M173.2,102.3c-0.6-0.2-0.4-0.4-0.2-0.7c0.2-0.3,0,0,0.5,0.1
			C173.4,101.7,173.8,102.5,173.2,102.3z M182.6,82.2c-1.3-0.7-2.3-1.1-2.8-1.2C180.8,81.2,181.7,81.7,182.6,82.2
			c5.2,2.6,15.5,9.5,18.1,23.4C200.7,105.7,191.8,87.6,182.6,82.2z M155.7,65.7c35.2,4.1,48.4,30.3,48.4,30.3
			C190.9,73.5,155.7,65.7,155.7,65.7z M224.4,190.5c-1.3-10.7-15.4-41-15.4-41s8.6,10.4,12.1,22.5S224.4,190.5,224.4,190.5z
			 M211.9,144.3c0,0,9.2,7.7,13.3,19C225.2,163.4,211.7,148.1,211.9,144.3z M233.4,149.5c-0.2-0.6,0.1-0.5,0.5-0.5
			c0.3,0,0,0,0.2,0.5C234.1,149.4,233.6,150.1,233.4,149.5z"/>
		<path d="M208.1,123.2c2.2-1.3,5.3-5,5.3-5c-3.4,2.2-10.9,7.8-14.3,8.6c-3.3,0.8-13.6,4.6-12.1,15.4c0,0,0.6-2.8,1.5-3.4
			c0.9-0.6,6.4-2.8,9.3-2c0,0-2.1-3.5-8.8-0.1c0,0,0.9-2.4,3.4-4c0,0,3.1-0.7,4.8-0.7c1.7-0.1,5.5,1.8,6,1.8c0.4,0-0.7-3.1-3.1-3.1
			c-2.4,0-3.3-1-3.3-1s1.9-1.4,4.9-0.9c3,0.6,6.3,0.3,6.3,0.3s-2.8-2-3.8-2.5C204.2,126.6,205.9,124.5,208.1,123.2z"/>
		<path d="M190.5,185.9c-0.1-0.2-0.2-0.3-0.3-0.5C190.2,185.4,190.3,185.6,190.5,185.9z"/>
		<path d="M170.5,201c0,0,3.4,13,24.4,11.5c0,0-9.6-7-14.4-22.4c0,0,0.8,18.2,8.9,19.7C189.4,209.8,174.7,209,170.5,201z"/>
		<path d="M165.3,231.2c0,0,6.7-14.3,3.7-22.1c0,0-1.8,10.6-3.4,13.8c0,0-4-11.1-12.9-13C152.7,210,166.7,221.6,165.3,231.2z"/>
		<path d="M154.9,120.3c-23-6.8-17.2,4-17.2,4C153.3,130.9,154.9,120.3,154.9,120.3z M140,123.3c0,0,2.7-3.1,6.5-1.9
			C150.4,122.7,144.5,125.2,140,123.3z"/>
		<path d="M197.8,175c-1.6,8.6,3.6,17.8,3.6,17.8c-7-1.6-9.9-5.4-10.8-6.8c8.4,15.9,19.6,10,19.6,10C202,195.4,197.8,175,197.8,175z
			"/>
		<path d="M139.7,181.3c9.2,0.2,6-17.9,6-17.9s-1.3,11.9-3.8,15.1C140.1,180.8,139.7,181.2,139.7,181.3z"/>
	</g>
	<path d="M7,19"/>
	<path d="M2.5,228.4c-1.1,0-2.2,0.7-2.2,0.7s-0.6,1.5,0,2s1.6,0.7,1.6,0.7L2.5,228.4z"/>
	<path d="M244.9,294.2c-0.4-0.4-1.1-0.5-1.1-0.5s-0.7,0.3-0.7,0.7c0,0.4,0.4,0.8,0.4,0.8L244.9,294.2z"/>
	<path d="M157.7,268.2c-0.4-0.4-0.2-0.8-0.2-0.8s-0.7,0.3-0.7,0.7c0,0.4,0.4,0.8,0.4,0.8L157.7,268.2z"/>
	<path d="M259.8,47.9c-0.4,0.4-2.2,1-0.5,1.7s1.7,0.3,1.9,0c0.2-0.3,0.8-1.2,0.5-1.7S259.8,47.9,259.8,47.9z"/>
	<path d="M27.9,246.4c-0.4,2.9-0.9,5.6,0,4.4c0.9-1.2,0.8-1.8,0.9-2.6s0-1.8,0-1.8L27.9,246.4L27.9,246.4z"/>
	<path d="M1.2,39.3c0.6,1.9,2,2.7,2,2.7s0.6-0.8,0.4-1.3s-0.8-1.4-0.8-1.4H1.2z"/>
	<path d="M258,231.9c-0.1,1.1,1.8,2.3,1.8,2.3s0.5-0.9,0.4-1.2c-0.1-0.2-0.3-1.2-0.6-1.2C259.3,231.9,258,231.9,258,231.9z"/>
	<path d="M23.4,15.6c0,0.8,0.2,1.3,0.7,1.3s1.3-0.2,1.4-0.7s0.5-1.4,0-1.3c-0.5,0.1-1.4,0-1.4,0L23.4,15.6z"/>
	<path d="M205.9,1.1c-0.8,0.8,1.2,1.1,1.2,1.1s-0.6-0.2,0-0.6s0-1.6,0-1.6h-1.2V1.1z"/>
	<path d="M233.9,284.8c1.2,0.5,0.8,0.8,1.3-0.3c0.5-1.1,1.2-0.5,0.5-1.1c-0.8-0.6-2-1.4-1.7-0.9
		C234.1,282.9,232.7,284.3,233.9,284.8z"/>
	<path d="M254.9,191.5c0.5,0,1.3-0.3,1.1-0.8s-0.5-1.3-1.1-1.1s-1.3,0.2-1.3,0.5s0.3,0.2-0.4,0.4c-0.6,0.2-0.3,0.8,0.3,0.9
		C254.1,191.7,254.9,191.5,254.9,191.5z"/>
	<path d="M210.5,12.2c0.1,0.6,0.6,0.8,0.8,0.7s0.4,0.1,0.4-0.4s0-0.9,0-0.9h-0.8L210.5,12.2z"/>
	<path d="M16.7,176.5c0.5,0.7,0.5,1.1,1,0.8s0.4-0.8,0.4-0.8s-0.5-0.7-0.7-0.8c-0.1-0.1-0.7-0.2-0.7,0
		C16.8,175.9,16.7,176.5,16.7,176.5z"/>
</g>
</svg>
