<?xml version="1.0" encoding="utf-8"?>
<!-- Generator: Adobe Illustrator 21.0.2, SVG Export Plug-In . SVG Version: 6.00 Build 0)  -->
<svg version="1.1" id="Calque_1" xmlns="http://www.w3.org/2000/svg" xmlns:xlink="http://www.w3.org/1999/xlink" x="0px" y="0px"
	 viewBox="0 0 728 388" style="enable-background:new 0 0 728 388;" xml:space="preserve">
<style type="text/css">
	.st0{fill:#FFFFFF;}
</style>
<title>Vague</title>
<path d="M0,163c45.9-8.3,95.8,10.4,95.8,10.4s48,0.9,130.7,21.3c47.4,11.6,72.5,16,72.5,16c38-2.7,117-29.9,117-80.7
	c0-82.7-55.4-65.4-55.4-65.4c13.7,8.1,21.8,34,13.6,47.6c-3.9,6.1-9.5,10.9-16.1,13.7c-16.6,7.5-37.9,3.1-50.2-10.4
	c-13.3-14.6-15-37.5-7.1-55.6S325,28.3,343,20.2s37.8-11.4,57.4-13.5c45.9-5,94.3-3.8,135.5,17C582.2,47,621.7,82.1,659,118.1
	c24.3,23.4,38.5,43.4,69,43.4V388H0"/>
<path class="st0" d="M296,95c0.1,0.8,0.2,1.6,0.1,2.4c0.8,3.5,1.9,6.9,3.3,10.1c1.6,3.4,3.5,6.7,5.8,9.6c0.9,0.9,2,2,3,3
	s2.1,2,3,2.7c2.2,1.6,5.1,3,7.4,4.4c1.5,1,3.1,1.9,4.7,2.9c1.3,0.4,2.7,0.9,4,1.1s2.6,0.5,3.8,0.5c1.2,0.1,2.4,0.2,3.5,0.5
	c2.8,0.2,5.6,0.3,8.3,0.2c4.5-0.1,8.9-0.7,13.2-2c4.3-1.3,8.3-3.5,11.8-6.4c0.3-0.8,1.6-2.2,3.6-4c2-1.7,3.6-3.8,4.7-6.2
	c0.6-1.5,0.5-2.4,0.1-2.7c-0.6-0.3-1.3-0.2-1.8,0.1c-0.8,0.4-1.5,0.8-2.1,1.4c-1.3,1.1-2.9,2.9-4.9,4.7c-1.9,1.7-3.9,3.3-6.1,4.6
	c-1.5,0.9-3,1.6-4.6,2.3c-1.1,0.5-2.3,1-3.5,1.3c-1.1,0.4-2.3,0.6-3.5,0.8c-0.7,0.1-1.4,0.2-2.2,0.2s-1.6,0-2.6,0
	c-3.4-0.2-7.5-0.2-11.6-0.7c-4-0.4-7.8-1.4-11.5-2.9c-3.5-1.5-6.6-3.7-9.2-6.5c-0.7-0.6-1.4-1.2-2-1.8c-0.3-0.4-0.6-0.7-0.9-1
	c-0.2-0.3-0.4-0.7-0.6-1c-0.6-1.1-1.1-2.2-1.4-3.4c-0.4-1.1-0.8-2.2-1.4-3.3c-0.9-1.5-1.7-3.2-2.6-4.9c-0.5-0.1-1.3-1-2.1-3.1
	c-0.8-2.4-1.6-4.5-2.3-6.2c-0.4-1.3-1.1-2.5-2-3.5C296.5,87.1,295.1,88.8,296,95z"/>
<path class="st0" d="M673.3,134.8c0.8,1.4,1.8,2.6,2.9,3.7c1.1,1.1,2.3,2.1,3.4,3.2c2,2.2,4.2,4.3,6.5,6.1c1.1,0.8,2.3,1.5,3.5,2.1
	c0.9,0.4,1.8,0.6,2.7,0.9c0.8,0.2,1.6,0.4,2.4,0.6c0.7,0.1,1.1-0.1,1-0.6c-0.1-0.8,0.5-1.2-0.5-2.5c-0.7-0.8-1.5-1.6-2.4-2.3
	c-0.9-0.9-1.9-1.8-2.8-2.6c-2.2-2-4.6-3.5-6.9-5.4c-2.3-1.9-3.3-3.4-6.2-4.8c-2.7-1.6-4.2-5.1-6-7.6c-2.2-2.8-4.7-5.1-7.7-7
	c-1.3-0.9-2.8-2.2-4.1-3.1c-1-0.8-1.9-1.7-2.7-2.6c-2.2-2.2-5.5-5.1-7.5-7.5s-3.2-4.2-5.6-6.1c-1.2-0.9-2.3-1.3-3.5-2.3
	s-2.4-2.2-3.5-3.3c-2.2-2.1-3.5-4.2-5.6-6.4s-5.2-4.7-7.5-6.7c-2.3-2.3-4.8-4.3-7.4-6.2c-2.6-1.7-4.9-2.4-7.4-4.2s-4.8-4-7.3-5.9
	c-2.5-1.8-5.2-3.6-7.6-5.5c-1.2-0.9-2.6-1.9-3.8-2.9c-1.2-0.9-2.5-2.3-3.7-3.3c-2.3-2-3-4.1-5.3-6.2s-5.8-4-8.5-5.5s-5-1.8-7.8-3.2
	s-5.4-3.9-8-5.6s-4.7-3.3-7.2-5c-1.3-0.9-4.5-1.7-5.8-2.6s-2.1-1.8-3.5-2.6c-2.5-1.9-5.3-3.4-8.3-4.4l-2.3-0.6l-2.4-0.5
	c-1.5-0.3-2.7-0.7-4.1-1.2c-0.7-0.2-1.5-0.4-2.2-0.6l-2.1-0.4c-1.4-0.3-2.9-0.6-4.3-1.1c-0.7-0.3-1.4-0.6-2.1-0.9
	c-0.7-0.3-1.4-0.6-2.2-0.9c-1.6-0.4-3.1-0.9-4.5-1.7c-1.3-0.8-1.9-1.7-3.3-2.3c-1.5-0.5-3-1.3-4.5-1.8c-1.7-0.4-3.5-0.7-5.3-0.9
	c-1.5-0.2-3.1-0.2-4.6-0.2c-1.6,0-3.1-0.1-4.6-0.4c-1.5-0.2-3.1-0.1-4.6-0.3c-3.1-0.3-6-1.6-9-1.9s-5.6-0.8-8.6-1.4
	c-0.7-0.1-1.4-0.2-2.1-0.2c-2.5,0.1-5,0.4-7.5,0.9c-2.3,0.4-4.6,0.3-6.9-0.3c-1.2-0.4-2.4-0.7-3.6-0.9c-3-0.2-5.9-0.3-8.9-0.1
	c-3,0.3-5.3,1-8.3,1.5s-6.2,0.9-9.2,1.2s-5.6-0.1-8.7-0.1s-7.3,0.7-10.4,0.8s-6.1-0.2-9.2,0.4s-4.3,2.2-7.3,3.2
	c-1.5,0.5-4.1,0.9-5.6,1.3c-0.8,0.2-1.6,0.4-2.4,0.5s-0.4-0.4-1.2-0.5s-4.4,1-5.2,1s0.2-0.9-0.5-0.7c-1.6,0.3-3.2,0.8-4.7,1.3
	c-2.9,1.2-6.5,2.7-9.5,3.5l-3.5,1c-2.8,1.4-5.4,3-7.9,4.8c-0.8,0.6-1.7,1.2-2.7,1.7c-0.9,0.5-1.9,1-2.9,1.3
	c-2.6,0.8-5.1,1.9-7.5,3.4l-0.3,0.2l-1.5,1c-4.4,3-8,7-10.6,11.6c-0.7,1.1-1.5,2.1-2.3,3c-2.1,2.4-4.5,4.6-6.9,6.7
	c-0.7,1-1.3,2.1-1.9,3.2s-1.2,2.1-1.7,3.1c-0.8,1.4-1.4,2.7-2,4.1s-1.1,2.8-1.6,4.3c-0.1,0.4-0.3,0.8-0.4,1.2c-0.9,4.9-0.6,9,0.2,11
	s1.9,1.8,3.2-1.3l0.1-0.5c0.2-0.7,0.3-1.3,0.6-2s0.5-1.3,0.8-1.9s0.5-1.3,0.8-1.9s0.6-1.2,0.8-1.9c0.1-0.3,0.2-0.7,0.3-1l0.4-1
	c0.2-0.7,0.4-1.4,0.6-2.1c0.5-1.4,1-2.8,1.6-4.1l1.3-2.5l1.4-2.5c1.3-3.7,3.2-7.2,5.8-10.1c0.8-0.9,1.8-1.7,2.9-2.3
	c3.6-1.9,7.1-4,10.4-6.3c0.6-0.5,1.3-1.1,2-1.6l2.6-1.8c0.9-0.6,1.8-1.2,2.7-1.7c1.3-1,2.6-2.1,3.8-3.2c0.6-0.5,1.3-1,2-1.4
	c0.8-0.4,1.6-0.8,2.5-1c5.2-1.6,9.8-3,14.5-4.6c1.4-0.8,3-1.3,4.5-1.7l0.4-0.1c2-0.7,4-1.5,6.1-2.3c0-0.1,0-0.2,0.1-0.2
	c1.1-0.5,2.2-0.8,3.4-1.1c0.7-0.2,1.9-0.9,2.7-1c1.5-0.1,3-0.1,4.5,0c3.1-0.1,6.1-0.1,9.1-0.4c2.8-0.3,5.5-0.7,8.2-1.3
	c3-0.6,5.7-1.4,8.7-2c1.6-0.3,3.2-0.4,4.8-0.4c1.7,0,3.3,0.1,4.9,0c3-0.2,6.4-0.5,9.3-0.4s5.4,0.6,8.3,0.7c3.1,0.1,6.6-0.4,9.6-0.4
	s6.1,0.4,9.1,0.4s5.1-0.6,8.1-0.8c1.5-0.1,3.1,0,4.7,0l4.7,0.1c3.1,0.1,6.5,1.1,9.5,1.5c1.5,0.2,2.8,0.6,4.3,0.8
	c1.6,0.1,3.2,0.4,4.8,0.8c1.4,0.5,2.9,0.8,4.3,1.1c1.1,0.2,2.1,0.7,3.2,1c2.6,0.5,5.3,0.9,7.9,1.4c0.9-0.2,1.8-0.2,2.7-0.2
	c1.6,0.1,2.6,0.7,4.1,1.1l2,0.5c0.6,0.2,1.3,0.4,2,0.6c1.4,0.5,2.7,1.1,4,1.6l2,0.8c0.7,0.3,1.3,0.7,2,1c1.4,0.7,4.1,1.3,5.4,2.1
	c1.3,0.8,2.9,1.8,4.1,2.7c1.2,0.9,2.4,1.7,3.5,2.4c1.2,0.8,2.4,1.4,3.7,2c1.5,0.6,2.6,0.7,4,1.2s2.5,0.6,3.9,1.3
	c1.4,0.6,2.8,1.3,4.3,1.9l2.2,1c0.7,0.4,1.4,0.7,2,1.1c3,1.7,5.9,3.5,8.6,5.6c2.4,1.9,3.2,3.8,5.6,5.7c2.4,1.9,5,2.9,7.6,4.4
	c2.7,1.5,5.7,3,8.4,4.5c1.3,0.8,2.8,1.9,4,2.7s2.3,2.2,3.6,3.2c2.4,1.9,4.7,3.7,7,5.6s4.4,4,6.7,6c2.5,2,4.9,4.1,7.2,6.4
	c2,2.1,4.1,4.2,6.3,6c2.4,1.9,4.5,3.4,7,5.2c2.5,1.8,4.9,4.6,7.2,6.6c1.1,1,3.1,1.9,4.1,3c1,1.1,2.4,2.5,3.4,3.7
	c2,2.3,3.2,4.1,5.7,5.8s5.3,3.3,7.5,5.4c1.1,1,2.1,2.1,3,3.3c1,1.2,2.4,2.8,3.3,4.1c1.8,2.5,3.9,5.5,6.4,7.3
	C669.5,131.4,671.7,132.1,673.3,134.8z"/>
<path class="st0" d="M369,71.7c-0.6-0.5-1.3-1-2-1.4c-0.6-0.3-1.1-0.5-1.7-0.7c-1.1-0.3-1.3,0.1-1,0.9c0.2,0.5,0.5,0.9,0.8,1.3
	c0.4,0.5,0.8,1,1.3,1.5s1,1,1.6,1.7s1.2,1.3,1.8,1.9c0.5,0.6,1.1,1.2,1.7,1.8c0.4,0.4,0.8,0.8,1.3,1.2c0.8,0.5,1,0.1,1-0.8
	c0-0.5-0.1-1.1-0.3-1.6c-0.3-0.7-0.6-1.3-1-1.9c-0.4-0.7-0.9-1.3-1.5-1.9c-0.3-0.4-0.6-0.7-0.9-1C369.7,72.2,369.4,72,369,71.7z"/>
<path class="st0" d="M711.5,159.1c0.3,0.2,0.6,0.5,0.9,0.7c0.3,0.2,0.7,0.4,1.1,0.5c0.8,0.4,1.7,0.7,2.6,0.9c1,0.3,2,0.5,3.1,0.6
	c1.1,0.1,2.3,0.3,3.5,0.3c5.8-0.2,6-1.1,5-2.4c-0.7-0.9-2.5-1.3-4.8-1.4c-2.2-0.4-5-0.3-7.3-0.7c-1.1-0.2-2-0.2-2.7-0.2
	c-0.5-0.1-1.1,0-1.6,0.1C710.5,157.7,710.5,158.2,711.5,159.1z"/>
<path class="st0" d="M376.3,91.3c0.6,4.6,0.4,8.4,1,11c0.3,1.2,0.7,1.6,1.2,1.1c0.9-1.3,1.4-2.8,1.6-4.3c0.1-0.3,0.2-0.7,0.2-1
	l0.1-1c0-0.7,0.1-1.4,0.1-2.1s-0.1-1.4-0.1-2.1l-0.1-1l-0.2-1c-0.5-2.5-1.5-4.4-2.5-4.8C376,85.3,375.5,86,376.3,91.3z"/>
<path class="st0" d="M438.2,60.8c-1.1-0.8-2.3-1.4-3.5-2c-0.8-0.3-1.5-0.8-2.2-1.3c-7-3.1-14.2-5.6-21.6-7.6
	c-1.3-0.2-2.8-0.4-4.3-0.8s-2.9-0.7-4.1-0.9c-1.4-0.2-2.9-0.2-4.5-0.3s-3.1-0.3-4.4-0.5l-1.1-0.2c1.1-0.1,2.1-0.3,3.1-0.6
	c3.2-0.8,8.8-2.8,10.5-4.1s-1.3-1.7-4.8-0.9c-3.5,0.8-6.9,2.3-9.9,4.2c-0.4,0.2-0.7,0.6-0.7,1l-2.8-0.6c-2.8-0.1-5.6,0.1-8.4,0.5
	c-1.2,0.2-2.5,0.3-3.7,0.3c-1.4,0.2-2.8,0.4-4.2,0.5s-2.9,0.4-4.5,0.7c-4.7,0.7-9.3,1.9-13.7,3.5c-4.6,1.6-8.8,4.2-12.3,7.5
	c-0.3,0.7-0.7,1.3-1.2,1.8c-0.3,0.4-0.7,0.8-1.1,1.2s-0.9,1-1.4,1.5c-0.4,0.3-0.7,0.7-1,1l-0.8,1c-0.5,0.7-1,1.3-1.4,1.8
	c-0.6,0.9-1.1,1.9-1.5,3c-0.6,1.7-0.4,2.6,0,2.9c0.8,0.6,2.7-0.8,4-2.1c0.6-0.7,1.4-1.5,2.3-2.4c0.4-0.5,0.8-1,1.3-1.5s1-1,1.5-1.5
	l0.7-0.8l0.8-0.7l1.6-1.4c1.1-0.8,2.2-1.7,3.2-2.3c2.7-1.8,5.5-3.3,8.5-4.5c2.9-1.1,6-1.7,9-1.9c3.8-0.3,8.3-1,12.9-1.4
	c4.4-0.5,8.9-0.6,13.4-0.4c1.1,0.1,2.2,0.1,3.3,0.2s2.1,0.3,3.2,0.5s2.1,0.3,3.1,0.5l3,0.7c2,0.2,3.9,0.6,5.7,1.3
	c1.3,0.5,2.6,1.1,3.8,1.8c1.2,0.7,2.5,1.2,3.8,1.6c1,0.3,2,0.6,3.1,0.8l3.2,1c0.4-0.3,1.8-0.3,4.3,0.5c2.3,0.8,4.7,1.5,7.2,2
	c1.4,0.4,2.9,0.5,4.4,0.3c0.9-0.2,1-0.8,0.3-1.7C439.5,61.7,438.9,61.2,438.2,60.8z"/>
<path class="st0" d="M299.6,210.3c-3.3-0.5-7-0.9-10.3-1.5c-1.6-0.3-3.6-0.8-5.2-1.1s-3.3-1.3-4.9-1.7c-3.2-0.8-6.3-1.7-9.5-2.6
	s-6.2-1.9-9.4-2.8s-7-1.6-10.1-2.8c-3-1.1-6-2-9.1-2.6c-3.2-0.7-6.1-1-9.4-1.5s-7.1-1.8-10.4-2.5c-1.6-0.3-3.9-0.2-5.5-0.6
	s-3.6-1.1-5.2-1.6c-3.2-1-5.2-2-8.5-2.3s-6.8-0.3-10-0.9c-1.6-0.3-3.2-0.8-4.7-1.3c-1.6-0.5-3.9-1.2-5.4-1.8
	c-3.1-1.2-6.9-2.6-10.2-2.8s-5.8,0.4-8.9-0.9c-3.1-1.6-6.5-1.9-9.8-2.6s-6.1-1.6-9.4-2.1c-2.4-0.4-4.9-0.3-7.3,0.2
	c-1.9,0.3-4,0.6-3.3,1.5c0.5,0.6,0.1,1.4,1.7,2c2.5,0.8,5,1.5,7.6,2.1c3.2,0.8,6.3,0.8,9.6,1.3s5.1,1.2,8.5,0.9c3.4,0,6.9,2,10,3.3
	c3.6,1.2,7.4,1.8,11.1,1.9c1.7,0.1,3.8,0.4,5.5,0.6c1.3,0.2,2.7,0.5,3.9,0.9c3.2,0.8,8,1.6,11.1,2.8s5.3,2.1,8.6,2.5
	c1.6,0.2,2.9,0,4.5,0.3c1.6,0.2,3.4,0.8,5,1.2c3.2,0.8,5.5,2,8.7,3s7.3,1.7,10.5,2.5c3.3,1,6.7,1.8,10.2,2.3c3.3,0.4,5.9,0,9.1,0.7
	s6.6,1.7,9.8,2.4s6.7,1.4,9.9,2.3c1.6,0.4,3.4,0.9,5,1.3s3.5,1.2,5,1.8c3.1,1.1,4.6,2.9,7.6,4.1s7.3,2,10.5,2.6s5.7,0.3,9,1
	s6.7,2.5,9.9,3.5s5.8,2.2,9,3.2c1.6,0.6,5.2,0.6,6.8,1.1s2.8,1.2,4.4,1.7c3.3,1,6.5,2.2,10,2.1c1.7,0,3.5-0.1,5.2-0.1s3,0,4.7,0
	c3.4,0,6.3-0.6,9.6-0.6c1.6,0,3.3,0.3,5,0.3c1.7-0.1,3.5-0.1,5.2,0.1c1.7,0.3,2.5,1,4.2,1.1s3.5,0.3,5.2,0.2s4.1-0.6,5.7-0.9
	c1.6-0.4,3.2-0.8,4.8-1.4c1.6-0.5,3.3-0.8,4.9-1.1c1.6-0.3,3.2-0.9,4.8-1.2c3.4-0.6,6.5-0.4,9.9-0.8c3.2-0.4,6.1-0.8,9.4-1.2
	c0.7-0.1,1.5-0.2,2.3-0.4c2.6-0.9,5.2-1.9,7.7-3.2c2.3-1.1,4.8-1.8,7.3-2c1.4,0,2.7-0.2,4.1-0.5c3.2-0.9,6.2-2.2,9.2-3.8
	c1.4-0.8,2.7-1.7,3.9-2.7c1.2-1,2.4-2,3.7-3c1.3-1,2.6-2.2,4-3.3c0.7-0.5,1.4-1.2,2-1.7l1.9-1.7c0.4-0.3,0.7-0.5,1-0.8
	s0.6-0.6,0.9-0.8c0.6-0.5,1.2-1,1.8-1.5c0.6-0.5,1.3-0.9,1.9-1.5c0.6-0.5,1.2-1.1,1.9-1.7c0.7-0.6,1.4-1.2,2-2l1.9-2.4
	c1.3-1.6,2.4-3.3,3.5-4.7c1.1-1.3,2.2-2.7,3.2-4.1c0.5-0.7,1-1.4,1.5-2.1c0.4-0.7,0.8-1.5,1.2-2.3c0.6-1.4,1-2.8,1.1-4.3
	c0.1-1.5,0.3-2.9,0.6-4.4c0.2-1,0.5-2,0.9-3c0.4-1,0.7-2,0.9-3c0.2-0.8,0.5-1.7,0.7-2.6s0.6-0.2,1-1s1.1-4.9,1.4-5.7
	c0.3-0.8,0.7,0.6,0.9-0.2c0.2-1.8,0.4-3.7,0.4-5.6l-0.1-5.6c-0.1-1.9-0.2-3.7-0.1-5.6c0-1.4,0-2.8,0-4.1c-0.6-3.4-1.6-6.6-3-9.8
	c-0.9-2.1-1.7-4.3-2.1-6.6c-0.5-3-1.5-5.9-2.9-8.6l-0.2-0.4l-1-1.7c-3-4.9-7-9.1-11.7-12.3c-1.1-0.8-2.1-1.7-3-2.7
	c-0.7-0.7-1.3-1.5-1.9-2.2c-0.6-0.7-1.2-1.4-1.7-2.1c-1-1.4-1.9-2.7-2.6-3.9l-5.9-5c-2.5-2.1-5-4-7.7-5.7c-0.4-0.2-0.7-0.5-1.1-0.8
	c-2.1-1.1-4.2-2-6.4-2.8c-0.9-0.3-1.8-0.6-2.6-0.8c-0.7-0.2-1.3-0.3-2-0.3c-2.3,0-2.5,1,0.3,3.6l0.5,0.3c2.7,1.8,4.6,3.9,7.2,5.8
	s5.6,3.5,8.2,5.5c1.6,1.2,3.2,2.6,4.9,3.9c3.8,2.1,7.2,4.6,10.2,7.7c1,0.9,1.8,2.1,2.4,3.3c1.9,4,4,7.8,6.3,11.6
	c0.5,0.8,1,1.5,1.5,2.3c1.2,1.9,2.2,3.8,3.1,5.8c0.9,1.6,1.8,3.2,2.7,4.6c0.9,1.6,1.4,3.4,1.6,5.3c0.2,2.9,0.3,5.6,0.4,8.3
	c0,1.4,0,2.7,0,4s0,2.6,0,3.9c0.2,1.7,0.2,3.4,0,5.1l-0.1,0.4c-0.1,1.1-0.1,2.2-0.1,3.4c0,0.6,0,1.2-0.1,1.8l-0.1,1.8
	c0.1,0,0.1,0.1,0.1,0.2c0,0.6,0,1.3-0.1,1.9c-0.1,0.8-0.3,1.5-0.4,1.9c-0.2,0.8-0.2,2.2-0.4,3c-0.7,1.5-1.4,2.9-2.3,4.2
	c-1.6,2.9-3.2,5.6-4.8,8.4c-0.8,1.4-1.5,2.6-2.2,3.8c-0.7,1.2-1.3,2.4-2.1,3.8c-1.4,2.8-3.1,5.5-4.8,8.1c-0.5,0.7-1,1.3-1.6,1.9
	c-0.6,0.7-1.2,1.3-1.9,1.8l-2,1.7c-0.7,0.6-1.3,1.1-1.9,1.6c-1.3,1-2.5,2.1-3.8,3.1c-1.3,1-2.7,1.9-4.1,2.7c-1.4,0.7-2.7,1.3-4,1.8
	s-2.6,1-4.1,1.6c-3,1.2-6.2,3.2-9.2,4.2s-6.3,1.7-9.4,2.7s-5.1,2.2-8.2,3.2s-6.7,1.9-9.8,2.6c-3.3,0.8-7.1,0.9-10.4,1.4
	c-1.6,0.3-3.1,0.4-4.8,0.6c-1.7,0.4-3.5,0.6-5.3,0.7c-1.6,0.1-3.2,0.2-4.9,0.4c-1.2,0.1-2.4,0-3.6,0c-2.9,0.5-5.8,0.9-8.6,1.3
	c-0.9,0.4-1.8,0.8-2.7,1.1c-1.6,0.5-2.9,0.2-4.5,0.3s-2.9,0.2-4.5,0.2c-3.1-0.1-6.2-0.4-9.3-0.9c-1.6-0.3-4.6-0.1-6.2-0.6
	s-3.5-1-5.1-1.5c-2.8-1.1-5.8-1.9-8.8-2.3c-1.6-0.2-2.8,0-4.5-0.2s-2.8,0-4.4-0.3c-3.3-0.6-6.8-1.1-10-1.9
	c-3.6-0.9-7.2-2.1-10.6-3.4c-3.1-1.2-4.5-2.9-7.6-4.1c-2.6-0.9-5.2-1.4-7.9-1.7c1.1,0,2.2-0.3,3.2-0.7c1.7-0.7,2.2-1.6,1.1-2.6
	s-2.6-1-4.5-0.5c-2.2,0.6-2.2,1.6-1.8,2.7c0.2,0.5,0.6,0.8,1.1,0.9L299.6,210.3z"/>
<path class="st0" d="M350.4,86.5c0.1,1.4,0.1,2.8-0.1,4.3c-0.1,0.9,0.4,1.1,1.2,0.5c1.1-1.1,1.8-2.5,1.9-4.1
	c0.2-2.2-0.4-4.3-1.7-6.1c-0.7-0.9-1.6-1.7-2.6-2.2l-0.7-0.3c-0.2-0.1-0.5-0.2-0.7-0.2c-0.4-0.1-0.7-0.1-1.1-0.1
	c-1.5,0.2-1.3,0.7-0.6,1.2c1,0.6,2,1.4,2.7,2.4C349.6,83.3,350.2,84.9,350.4,86.5z"/>
<path class="st0" d="M331.3,82.4c-0.4,0.7-0.8,2.5-0.1,5.2c0.4,1.7,1.2,3.2,2.3,4.5c1,1.3,2.3,2.4,3.8,3.2c1.2,0.7,2.5,1.1,3.9,1.2
	c0.5,0,1,0,1.5-0.1c0.4-0.1,0.7-0.3,1-0.5c0.7-0.6,0.8-1.2,0.1-1.6c-0.5-0.3-1.1-0.6-1.6-0.8c-1-0.4-2-0.9-2.9-1.5
	c-0.9-0.6-1.8-1.3-2.6-2.2c-0.7-0.7-1.3-1.5-1.8-2.4c-0.9-1.6-1.5-3.2-2.2-4.4C332.2,82,331.7,81.7,331.3,82.4z"/>
<path class="st0" d="M458.2,106.9c0.3,0.5,0.4,1.2,0.4,1.8c-0.2,1.1-1,1.9-0.8,2.9c0.2,0.7,0.4,1.3,0.6,1.9c0.6,0,1.1,0.5,1.2,1.1
	c1,3.4,5.2,4.7,5.2,0.4c0-0.3,0.1-0.6,0.2-0.9c-0.2-2.3-0.4-4.9-0.7-7.4c-0.5-0.7-0.5-1.8-0.8-2.7s-1.1-1.7-1.2-2.7
	c-0.1-0.7-0.1-1.3-0.1-2c-0.4-0.8-1-1.6-1.6-2.3c-0.3-0.3-0.5-0.6-0.6-1c-0.6-0.8-1.1-1.6-1.5-2.4c-1.5-2.8-2.6-5.7-5.3-7.7
	c-0.7,0.1-1.4-0.3-1.8-0.9c-1.6-2-2.9-1.9-3.5-1.2c-0.6,0.8-0.9,1.8-0.7,2.8c0.3,1.4,2.2,2.9,3.1,4s1.5,1.7,1.9,2.3
	c0.6,0.8,0.9,1.8,1,2.8c0.3,1.3,0.9,2.6,1.7,3.7c0.8,1.2,1.7,2.4,2.4,3.5C457.8,104.3,458.1,105.6,458.2,106.9z"/>
<path class="st0" d="M462.7,161.5c0.1-0.7,0.3-1.4,0.5-2c0.1-0.3,0.2-0.6,0.3-0.8c0.1-0.2,0.5,0.1,0.8-0.1s0.5-1.5,0.8-1.7
	s0.7,0.4,0.8,0.1c0.2-0.6,0.3-1.2,0.2-1.8c-0.1-1.2,0.1-2.4,0.5-3.6c0.2-0.4,0.4-0.8,0.7-1.2c0-1.2-0.2-2.3-0.6-3.4
	c-0.3-0.7-0.1-1.5,0.3-2.2c0.7-0.8,1.2-1.7,1.5-2.7v-0.1l0.1-0.6c0.3-2-0.3-3.9-1.4-5.5c-0.2-0.4-0.3-0.9-0.3-1.3
	c0.1-1.2,0.6-2.4,1.4-3.3c0-0.8-0.2-1.7-0.2-2.5c0-1-0.1-2.1-0.3-3.1c0-0.1,0-0.3,0-0.4c-1.7-3.2-4.6-4.9-6-2.3c0,0.1,0,0.1,0,0.2
	c0,1-0.6,2-0.6,3s0.6,2,0.8,3l0.3,2c0.8,1.2,1.7,2.5,1.7,4c0,0.5-0.2,0.9-0.5,1.3c-1.1,1.1-1.9,2.5-2.3,4c0,0.3,0,0.6,0,0.9
	c0,0.7,0,1.4-0.1,2.1c0.1,0.6,0.4,1.2,0.7,1.8c0.2,0.6,0.2,1.2-0.1,1.8c-1,1.5-1.7,3.1-2,4.8c0.1,0.6,0.1,1.1-0.2,1.6l-0.1,0.1
	c0,0.8,0,1.5,0,2.3c0.1,0,0.1,0,0.1,0.1c0.1,0.4,0.1,0.9,0,1.3c0,0.3,0,0.7,0,1c-0.4,0.4-0.8,0.8-1.3,1.1c-0.8,0.7-1.5,1.5-2.1,2.4
	c-0.5,0.8-0.9,1.6-1,2.5c-0.2,1-0.3,2-0.5,3.1s-1.4,1.8-2,2.6c-0.5,0.9-1.2,1.7-1.9,2.5c-0.8,0.6-1.7,1-2.5,1.5s-1.1,1.8-1.8,2.6
	s-1.7,1.2-2.3,2s-0.6,1.8-1.1,2.7c-0.6,0.9-1.2,1.7-1.9,2.5c-0.7,0.8-2,1.1-2.8,1.7c-0.4,0.3-0.9,0.4-1.3,0.7
	c-0.4,0.4-0.9,0.7-1.4,0.8c-0.5,0.1-1,0.3-1.4,0.6c-0.4,0.1-0.8,0.2-1.1,0.2l-2.1,1.8c-0.1,0.4-0.2,0.8-0.3,1.2
	c-0.3,0.4-0.7,0.7-1.2,0.7c-0.4,0.3-0.8,0.5-1.2,0.7c-0.9,0.3-1.9,0.6-2.9,0.7c-0.5,0.1-1.2,0.9-1.8,0.8s-1.3,0-1.8-0.1
	c-1.2-0.1-2.1-0.2-2.9,0.4c-0.4,0.3-0.6,0.9-1,1.2c-0.3,0.4-0.7,0.8-1.1,1.1c-0.9,0.6-1.8,1.2-2.8,1.8c-1.1,0.5-2.3,0.8-3.5,0.9
	c-1.1,0.1-2-0.9-3.1-0.8s-1.8,0.9-2.7,1.6s-1.8,1.6-2.8,2.1c-0.5,0.3-1,0.5-1.5,0.7c-0.5,0.2-1.2-0.1-1.7,0.1c-1,0.3-2,0.6-3,0.8
	c-1,0.2-2.1,0.3-3.1,0.4c-1.1,0.4-2.2,0.6-3.3,0.6c-1-0.1-2,0-3,0.4c-0.9,0.4-1.9,0.9-2.7,1.5c-1,0.5-2.3,0.5-3.3,0.8
	c-0.5,0.2-1,1-1.5,1s-1.2,0-1.8,0c-1.1-0.1-1.9-0.4-2.8,0.3s-1.8,1.6-2.8,1.9c-0.5,0.1-1,0.2-1.6,0.1c-0.6-0.1-1.3-0.1-1.9-0.2
	c-1.1-0.3-2.5-0.6-3.4,0.1s-1.4,1.9-2.6,1.4c-1.3-0.7-2.2,0-3.3,0c-1,0-2,0.1-3,0.3c-0.9,0.3-1.6,1-2,1.9c-0.4,0.7-1,1.4-0.6,2.2
	c0.3,0.6,0.3,1.3,1,1.6c0.9,0.3,1.8,0.3,2.7,0.3c1.1,0,1.9-0.8,3-1.1s1.7-0.2,2.5-1.3c0.9-0.9,2.4,0.1,3.5,0.4s2.5-0.4,3.5-1.2
	c0.5-0.4,1.1-0.7,1.6-1c0.4-0.2,0.8-0.3,1.3-0.2c1.2-0.4,2.4-0.5,3.7-0.5c1.1,0.2,1.9,0.5,2.9-0.1c0.5-0.2,0.7-0.8,1.2-1
	c0.5-0.2,1.1-0.3,1.6-0.4c1.1-0.2,2,0.2,3.1,0.2c1.1-0.2,2.3-0.4,3.4-0.9c1.1-0.1,2.2-0.4,3.2-1c0.9-0.6,1.4-1.8,2.4-2.2
	s2.1-0.5,3.1-0.9c1-0.5,2-0.9,3-1.2c0.5-0.1,1.1-0.4,1.6-0.5c0.6-0.1,1.2-0.1,1.7-0.1c1.1-0.1,2.1,1,3.2,1c1.2-0.2,2.3-0.6,3.3-1.3
	c0.9-0.6,1.3-1.8,2.2-2.4s2.4-0.3,3.4-0.5c1-0.2,2.1-0.3,3.1-0.3c0.5-0.1,1.3-1.2,1.9-1.2s1.1,0.1,1.6,0.1c1.1-0.1,2.3,0,3.1-0.9
	l1.2-1.4c0.4-0.4,0.8-0.7,1.2-1c0.9-0.6,1.5-1.6,2.4-2.1c0.5-0.1,1.1-0.3,1.6-0.4c0.5-0.3,1.1-0.5,1.7-0.4c0.6,0.1,1.2,0.7,1.8,0.6
	c0.6,0,1.2-0.1,1.8-0.2c0.6-0.3,1.1-0.7,1.6-1.1c0.4-0.4,0.8-0.9,1-1.5c0.3-0.5,0.7-0.9,1.2-1.2c0.4-0.4,0.7-0.9,1.1-1.2
	c0.9-0.7,2.2-0.8,3.1-1.3s1.8-1,2.8-1.6c0.2-0.1,0.4-0.3,0.6-0.5c0.5-0.9,0.9-1.8,1.1-2.8c0.2-0.9,1-1.5,1.8-1.7
	c0.5,0,1.1-0.2,1.6-0.4c0.9-0.7,1.6-1.5,2.2-2.4c0.5-1,0.5-2.1,0.9-3.1c0.4-1.1,0.8-2.1,1.4-3.1c0.5-1,1.5-1.4,2.3-2.2
	c0.4-0.5,0.8-1,1-1.6c0.3-0.6,0.6-1.1,1-1.6c0.7-0.9,1.9-1.6,2.2-2.6S462.7,162.6,462.7,161.5z"/>
<path class="st0" d="M436.8,80.5c0.7-0.6,0.3-1.9-0.7-2.6c-1-0.6-2.3-0.6-3.3,0c-0.8,0.6,0,1.8,0.8,2.4c0.5,0.3,1.1,0.5,1.6,0.5
	C435.8,80.9,436.4,80.8,436.8,80.5z"/>
<path class="st0" d="M341.5,219.4c0.8,1.6,2.9,0.8,4.5,0c1.5-0.7,1.8-1.7,0.8-2.6s-2.4-0.8-4-0.2C340.9,217.3,341,218.3,341.5,219.4
	z"/>
<path class="st0" d="M439.9,79.8c-0.8,1-1,1.9,0.6,3c1.3,1,2.6,1.4,3.8,1s1.4-1.5,0.2-2.7c-0.7-0.7-1.5-1.3-2.4-1.7
	C441.3,79,440.4,79.2,439.9,79.8z"/>
<path class="st0" d="M366.7,61.7c0.2,1,0.9,1.9,1.8,2.4c1.4,0.8,4.1,0.3,5.7,0.4s2.5,0.1,3.4,0.3c1.1,0.2,2.1,0.7,3,1.4
	c1.3,0.8,2.6,1.4,4.1,1.7l1.2,0.3l1.1,0.3c0.7,0.2,1.4,0.5,2.1,0.8c1.4,0.6,2.5,1.6,3.5,2.7c0.6,0.3,1.2,0.8,1.5,1.4
	c0.5,1.1,0.3,2.2,1,3c0.5,0.5,1,1,1.6,1.5c0.6-0.2,1.3,0,1.6,0.5c1.1,1.2,2.7,1.9,4.3,1.7c1.2-0.2,1.8-1.4,0.7-3.6
	c-0.2-0.3-0.3-0.6-0.3-1c-1.6-2.4-3.3-4.7-5.2-6.9c-0.9-0.3-1.6-1.4-2.5-2s-2.2-0.9-3-1.7c-0.6-0.5-1-1.1-1.6-1.7
	c-1-0.5-2-0.8-3.1-0.9c-0.5,0-0.9-0.2-1.3-0.5c-1-0.2-2-0.6-3.2-1c-3.5-1.2-6.8-2.4-10.5-1.8c-0.5,0.6-1.3,0.9-2.1,0.7
	C367.5,59.6,366.6,60.7,366.7,61.7z"/>
<path class="st0" d="M341.6,203.2c0.5-0.3,0.8-0.9,1.4-1.2c0.6-0.2,1.2-0.4,1.8-0.4c1.2-0.4,2.2,0,3.5-0.1c1.3-0.3,2.6-0.7,3.8-1.3
	c1.3-0.2,2.5-0.7,3.6-1.5c1-0.8,1.4-2,2.5-2.6s2.3-0.9,3.4-1.4s2.2-1.3,3.3-1.8c0.5-0.2,1.1-0.6,1.7-0.8c0.6-0.2,1.3-0.3,1.9-0.4
	c1.2-0.2,2.4,0.6,3.6,0.4c1.3-0.4,2.5-1.1,3.5-2.1c0.9-0.8,1.2-2.1,2.1-2.9s2.5-0.8,3.6-1.4s2.2-0.7,3.4-1.1
	c0.6-0.2,1.3-1.6,1.9-1.8s1.2-0.1,1.8-0.3c1.2-0.4,2.6-0.6,3.3-1.8l1.1-1.8c0.3-0.5,0.7-1,1.1-1.4c0.7-1,1.4-2,2.2-2.9
	c0.4-0.4,1.2-0.5,1.6-0.9c0.5-0.5,1-0.8,1.7-1c0.7-0.1,1.4,0.3,2,0c0.6-0.2,1.3-0.5,1.9-0.9c0.5-0.5,1-1.1,1.4-1.7
	c0.3-0.6,0.6-1.2,0.7-1.9c0.3-0.6,0.6-1.2,1-1.7c0.4-0.5,0.5-1.2,0.9-1.7c0.4-0.5,0.9-0.9,1.4-1.3c0.5-0.4,1-0.8,1.5-1.3l1.2-1.4
	c0.4-0.5,0.8-0.9,1.3-1.4c0.2-0.2,0.4-0.5,0.5-0.8c0.3-1.1,0.4-2.2,0.3-3.4c0-1,0.5-2,1.3-2.5c0.5-0.3,1-0.6,1.4-1.1
	c0.6-1.1,1.1-2.2,1.4-3.4c0.1-1.3-0.2-2.4-0.2-3.6s0-2.6,0.1-3.8c0.3-1.2,0.7-2.3,1.3-3.4c0.4-1.2,0.3-3,0.7-4.2s1.1-2.4,1-3.7
	s-1.5-1.9-1.9-3.1c-0.1-0.7-0.2-1.5-0.2-2.3c0-0.3,0-0.7,0-1c0.1-0.3,0.5-0.1,0.7-0.4s0-1.8,0.2-2.1s0.8,0.1,0.8-0.2
	c0-0.7-0.2-1.4-0.4-2c-0.5-1.3-0.7-2.6-0.7-3.9c0.1-0.5,0.2-1,0.2-1.5c-0.4-1.2-0.9-2.4-1.6-3.4c-0.5-0.7-0.6-1.6-0.4-2.4
	c0.4-1.1,0.6-2.2,0.6-3.3v-0.2l-0.1-0.7c-0.4-2.2-1.5-4.1-3.1-5.6c-0.3-0.4-0.6-0.8-0.7-1.3c-0.3-1.3-0.3-2.7,0.2-4
	c-0.3-0.9-0.8-1.8-1.1-2.6c-0.4-1.1-0.9-2.2-1.5-3.2c-0.1-0.1-0.1-0.3-0.2-0.4c-1.2-1.3-2.7-2.1-4.5-2.4c-1.2-0.1-2.1,0.6-2.2,2.1
	l0.1,0.2c0.4,1.1,0.3,2.2,0.7,3.3s1.4,1.9,1.9,2.9l1,2c1.4,0.9,2.4,2.3,3,3.8c0.2,0.5,0.2,1-0.1,1.5c-0.7,1.6-1,3.3-0.9,5l0.3,1
	c0.2,0.8,0.4,1.6,0.6,2.4c0.3,0.6,0.7,1.2,1.2,1.8c0.4,0.6,0.6,1.3,0.4,2c-0.5,2-0.6,4-0.4,6c0.3,0.6,0.5,1.2,0.4,1.9v0.2
	c0.2,0.8,0.5,1.7,0.8,2.5c0.1,0,0.1,0,0.1,0.1c0.2,0.4,0.4,0.9,0.4,1.4c0.2,0.3,0.3,0.7,0.4,1.1c-0.2,0.6-0.5,1.2-0.8,1.7
	c-0.5,1.1-0.9,2.3-1.1,3.5c-0.2,1-0.2,2.1,0,3.2c0.2,1.2,0.5,2.3,0.7,3.5s-0.6,2.5-0.9,3.6c-0.2,1.2-0.5,2.3-0.9,3.4
	c-0.5,1-1.3,1.7-1.8,2.7c-0.3,0.5-0.4,1.1-0.5,1.7c-0.1,0.6-0.2,1.2-0.4,1.7c-0.4,1.1-1.1,2-1.6,3s0,2.1-0.3,3.2
	c-0.3,1.1-0.7,2.3-1.3,3.3c-0.3,0.5-0.7,1-1.1,1.4c-0.5,0.4-0.9,0.8-1.3,1.3c-0.4,0.4-0.8,0.8-1.2,1.2c-0.3,0.5-0.7,1-1.2,1.3
	c-0.5,0.3-0.9,0.7-1.3,1.1c-0.4,0.2-0.7,0.4-1.1,0.6l-1.8,2.5c0,0.5,0,0.9-0.1,1.4c-0.2,0.7-0.7,0.8-1.2,1.1
	c-0.4,0.4-0.8,0.8-1.2,1.1c-0.9,0.6-1.9,1.2-3,1.6c-0.6,0.2-1.1,1.2-1.8,1.4s-1.4,0.3-2,0.4c-1.1,0-2.2,0.5-3.1,1.2
	c-0.4,0.5-0.5,1.1-0.9,1.5c-0.3,0.5-0.6,1-1,1.4c-0.9,0.8-1.8,1.8-2.8,2.5c-1.1,0.8-2.3,1.4-3.6,1.7c-1.2,0.3-2.4-0.4-3.5-0.1
	s-1.8,1.3-2.7,2.1s-1.8,1.9-2.8,2.7c-0.5,0.4-1.1,0.7-1.6,1c-0.5,0.3-1.3,0.2-1.8,0.4c-1.1,0.5-2.1,1-3.3,1.3
	c-1.1,0.4-2.3,0.6-3.4,0.9c-1.1,0.5-2.4,0.9-3.6,1.1c-1.1,0.1-2.3,0.3-3.3,0.8c-1,0.5-2,1.1-2.9,1.8c-1,0.6-2.5,0.7-3.6,1.1
	c-0.5,0.2-1,1.1-1.7,1.1s-1.4,0.2-2,0.2c-1.2,0-2.1-0.2-3.1,0.5s-2,1.8-3.1,2.1c-0.6,0.2-1.2,0.2-1.8,0.2c-0.6-0.1-1.5,0-2.1-0.1
	c-1.3-0.3-2.8-0.5-3.8,0.2s-1.6,1.9-2.9,1.5c-1.3-0.7-2.4,0.1-3.6,0.1c-1.1,0-2.3,0.1-3.4,0.3c-1,0.3-1.8,1-2.3,1.8
	c-0.5,0.7-1.2,1.4-0.8,2.1c0.3,0.5,0.3,1.3,1,1.6c1,0.3,2,0.4,3,0.3c1.2-0.1,2.3-0.8,3.4-1.1s1.9-0.2,2.9-1.3c1.1-0.9,2.6,0.1,4,0.4
	s3-0.5,4-1.3c0.5-0.4,1.3-0.7,1.8-1.1c0.4-0.2,0.9-0.3,1.4-0.3c1.3-0.4,2.7-0.7,4.1-0.8C339.6,203.5,340.6,203.8,341.6,203.2z"/>
<path class="st0" d="M351.5,68.7c-0.4,0.5-0.7,1-0.8,1.6c-0.1,1.1,1.5,1.2,2.5,0.7c0.6-0.3,1.1-0.7,1.6-1.1c0.4-0.4,0.7-0.9,0.9-1.5
	c0.1-0.9-1.3-1.4-2.6-0.9C352.4,67.7,351.9,68.2,351.5,68.7z"/>
<path class="st0" d="M363.9,64.3c0.6-1.2-0.1-2-2.1-1.8c-2.2,0.2-4.8,1.2-4.5,2.9c0.2,1.3,0.9,2,2.9,1.4c0.8-0.2,1.6-0.5,2.3-0.9
	C363.1,65.5,363.6,65,363.9,64.3z"/>
<path class="st0" d="M541,47.8c-0.4-1.1-1.2-2-2.2-2.7c-0.4-0.3-0.7-0.6-0.9-1c-1.5-1-3.1-2.1-4.8-3.2s-3.4-2.2-5.1-3.2
	c-1.3-0.2-2.9-1.3-4-1.8c-1.3-0.5-3.1-0.7-4.3-1.4c-0.9-0.5-1.6-1.1-2.5-1.7c-1.4-0.4-2.8-0.7-4.2-0.8c-0.6-0.1-1.2-0.2-1.8-0.5
	c-1.4-0.3-2.9-0.7-4.3-1.1c-4.6-1.5-8.6-3.3-13.5-3.8c-0.9,0.4-1.9,0.4-2.8,0c-3.7-1.1-5.1-0.6-5.4,0.4c-0.3,1,0.5,2.3,1.4,3
	c1.7,1.3,5.6,1.7,8,2.4c1.2,0.3,2.1,0.5,2.9,0.6c0.8,0.2,1.4,0.3,2.1,0.5c1.6,0.5,3.1,1.1,4.5,2c2,1.1,4.1,1.8,6.3,2.2
	c1.2,0.3,2.3,0.5,3.5,0.8l1.7,0.4c0.6,0.1,1.1,0.3,1.6,0.4c2.1,0.6,4.1,1.5,6,2.7c1,0.3,1.9,0.7,2.7,1.4c1.3,1.1,1.7,2.5,3.1,3.2
	c0.9,0.5,2,1,3,1.4c0.3-0.3,1.1-0.3,2.3,0.2c1.1,0.6,2.4,1,3.7,1.2c0.9,0.2,1.7,0.1,2.6-0.2C540.9,49.1,541.2,48.4,541,47.8z"/>
<path class="st0" d="M467,26.5c1-0.6-0.1-1.9-1.7-2.5c-1.6-0.5-3.3-0.5-4.9,0c-1.2,0.6,0,1.9,1.5,2.4C463.3,27,466,27.2,467,26.5z"
	/>
<path class="st0" d="M678.2,289.8c-0.1,1.8,1.1,3.6,3,5.6c2.2,2.2,3.1,1.7,3.7,0.5c0.8-1.6-1.5-4.1-3.6-6
	C679.4,288.3,678.3,288,678.2,289.8z"/>
<path class="st0" d="M480.1,28.3c1.4-0.8,0.9-1.8-1.6-2.7c-2.7-0.9-6.2-1.8-7.2-0.2c-0.7,1.1-0.6,2.1,2.4,2.9
	C476.4,29,478.7,29.1,480.1,28.3z"/>
<path class="st0" d="M633.6,230c1.1,0.4,2.3-0.2,2.7-1.2c0.1-0.2,0.3-0.4,0.5-0.6c0.6-1.7,1.5-3.6,2.2-5.5c-0.2-0.7,0.3-1.4,0.4-2.1
	c0.1-0.7-0.3-1.6,0.1-2.3c0.2-0.4,0.6-0.9,0.9-1.3c0-0.7-0.1-1.5-0.3-2.1c-0.1-0.3-0.1-0.6,0-0.9c-0.1-0.7,0-1.5,0.1-2.2
	c0.3-2.4,1.3-4.6,0.8-7c-0.5-0.3-0.8-0.9-0.6-1.4c0-0.1,0-0.1,0-0.2c0.6,1,1.2,2,1.7,3c0.4,0.8,0.7,1.7,1,2.5
	c0.3,0.8,0.1,1.8,0.4,2.6c0.5,1.6,0.9,3.2,1.3,4.8s0.6,3.3,1,4.9c0.6,1.7,1.1,3.4,1.4,5.1c0.1,1.6,0.4,3.2,1,4.8
	c0.6,1.5,1.3,3,2.1,4.4c0.7,1.7,1.2,3.4,1.7,5.2c0.3,0.8,1.3,1.6,1.5,2.5c0.2,0.8,0.5,1.9,0.6,2.8c0.3,1.7,0.1,2.9,1.1,4.4
	s2.3,2.8,3,4.3c0.3,0.8,0.6,1.6,0.6,2.4c0.1,0.9,0.5,2,0.6,2.9c0.2,1.8,0.4,3.9,1.6,5.2s2.7,1.9,2.8,3.8c-0.1,1.9,1.1,3.4,1.8,4.9
	c0.6,1.5,1.3,3.1,2.1,4.5c0.7,1.1,1.8,2,3.1,2.5c1,0.5,2.1,1.1,2.5,0.3c0.3-0.6,1-0.8,0.9-1.8c-0.3-1.3-0.8-2.6-1.4-3.8
	c-0.6-1.5-1.9-2.6-2.8-4c-0.5-0.7-0.7-1.3-1.1-1.8c-0.4-0.7-0.9-1.2-1.5-1.6c-1.4-1.2-1-3.5-1.2-5.3c-0.4-1.9-1.3-3.7-2.7-5.1
	c-0.6-0.7-1.1-1.5-1.6-2.3c-0.4-0.6-0.6-1.2-0.7-1.9c-0.5-1.5-1.6-3.8-1.8-5.5s-0.1-3-1-4.5c-0.4-0.7-1-1.1-1.4-1.9
	c-0.3-0.8-0.6-1.6-0.8-2.5c-0.5-1.6-0.3-3-0.5-4.7c-0.4-1.8-1-3.5-1.6-5.2c-0.4-1.7-0.9-3.4-1.7-5c-0.8-1.5-2.2-2.4-2.8-4
	c-0.6-1.6-0.9-3.3-1.5-4.9c-0.6-1.6-1.3-3.2-1.8-4.9c-0.2-0.8-0.6-1.7-0.8-2.5c-0.2-0.9-0.3-1.8-0.4-2.7c-0.2-1.7,0.8-3,0.6-4.7
	c-0.3-1.9-1-3.6-1.9-5.3c-0.8-1.5-2.1-2.3-2.8-3.9c-0.8-1.5-0.7-3.6-1.1-5.3s-0.5-3.2-0.9-4.8c-0.2-0.8-1.6-2.3-1.7-3.1
	s0-1.6-0.1-2.5c-0.3-1.7-0.5-3.5-1.6-4.9l-1.7-2.1c-0.5-0.6-0.9-1.3-1.4-2c-0.9-1.5-2.1-2.6-2.8-4.1c-0.4-0.8-0.4-1.7-0.7-2.5
	c-0.5-0.8-0.7-1.7-0.8-2.6c0-0.9,0.5-1.6,0.3-2.5c-0.2-0.8-0.3-1.8-0.6-2.6c-0.4-0.9-1-1.7-1.5-2.5c-0.5-0.7-1.1-1.3-1.8-1.9
	c-0.6-0.6-1.1-1.3-1.6-2.1c-0.5-0.7-1.1-1.3-1.6-2c-0.9-1.5-1.1-3.3-1.8-4.8s-1.3-2.9-1.9-4.5c-0.2-0.4-0.3-0.7-0.5-1.1
	c-1-1.1-2.1-2-3.3-2.9c-1-0.8-1.7-2-1.9-3.3c0-0.7-0.1-1.5-0.3-2.2c-0.7-1.5-1.6-2.9-2.5-4.2c-1.1-1.2-2.4-2-3.5-3.2
	c-1.2-1.2-2.3-2.5-3.4-3.9c-1.1-1.4-1.3-2.9-2.1-4.4s-2.3-3.3-3.1-4.9c-0.8-1.6-1.2-3.3-2.3-4.6c-1.1-1.3-2.7-1.2-4.1-2.3
	c-0.7-0.8-1.4-1.6-2-2.4c-0.3-0.3-0.6-0.7-0.8-1.1c-0.2-0.4,0.3-0.4,0.2-0.9c-0.1-0.5-1.4-2-1.5-2.5c-0.1-0.5,0.8-0.3,0.6-0.7
	c-0.5-0.7-1.2-1.4-1.8-2c-1.4-1.2-2.6-2.6-3.6-4.2c-0.3-0.6-0.6-1.2-0.9-1.8c-1.2-1.2-2.6-2.3-4-3.2c-1-0.7-1.7-1.6-2.1-2.7
	c-0.4-1.5-1-2.9-1.9-4.2l-0.1-0.2l-0.5-0.8c-1.8-2.3-4.2-4.1-7-5.2c-0.6-0.3-1.2-0.8-1.6-1.3c-1.2-1.3-2.1-3-2.7-4.7
	c-1-0.9-2-1.8-3-2.6c-1.2-1.1-2.5-2.2-3.9-3.1c-0.2-0.1-0.4-0.3-0.5-0.4c-1.9-1-4.1-1.5-6.3-1.4c-1.4,0.2-1.9,1.2-0.9,3l0.2,0.2
	c0.6,0.5,1.1,1.1,1.6,1.8c0.5,0.6,1,1.2,1.5,1.8c1.2,1.1,2.9,1.7,4.2,2.8c0.8,0.6,1.6,1.3,2.5,2c2.1,0.7,4.1,1.9,5.8,3.4
	c0.5,0.5,0.9,1.2,1,1.9c0.5,2.3,1.6,4.5,3,6.4l1,1.1c0.8,0.8,1.6,1.7,2.4,2.6c0.7,0.6,1.5,1.2,2.4,1.6c0.8,0.5,1.5,1.3,1.9,2.2
	c1.1,2.7,2.6,5.2,4.4,7.4c0.7,0.5,1.4,1.2,1.8,2l0.1,0.2c0.8,0.9,1.7,1.7,2.7,2.6c0.1,0,0.1,0,0.2,0c0.6,0.4,1.1,0.8,1.5,1.4
	c0.4,0.3,0.9,0.6,1.2,1c0.3,0.8,0.6,1.6,0.8,2.5c0.6,1.6,1.3,3.2,2.1,4.7c0.8,1.3,1.7,2.6,2.8,3.7c1.2,1.2,2.5,2.2,3.7,3.4
	s1.9,3.2,2.8,4.6c1,1.4,1.9,2.9,2.8,4.4c0.7,1.5,0.9,2.9,1.7,4.4s2.3,2.9,3.2,4.3s1.5,3.1,2.5,4.4c0.9,1.4,2.2,1.9,3.3,3.2
	c1.1,1.3,2.2,2.7,3.2,4.1c0.9,1.6,1.6,3.2,2.3,4.8c0.4,0.7,0.6,1.5,1,2.2c0.5,0.7,0.9,1.5,1.2,2.4c0.2,0.8,0.6,1.6,1,2.3
	c0.2,0.6,0.4,1.2,0.5,1.8c0.8,1.3,1.6,2.5,2.5,3.7c0.5,0.2,1,0.5,1.5,0.9c0.7,0.6,0.7,1.3,1.1,2.1c0.4,0.7,0.8,1.4,1.1,2.1
	c0.6,1.5,1,3.1,1.4,4.6c0.2,0.8,1.2,2.1,1.3,2.9c0.1,0.9,0.2,1.9,0.3,2.8c0,1.6,0.3,3.2,1.1,4.6c0.4,0.7,1,1.1,1.5,1.9
	s1,1.1,1.4,1.9c0.9,1.5,1.7,3.1,2.4,4.6c0.2,0.5,0.4,1.1,0.6,1.8c-0.2,0.2-0.4,0.4-0.5,0.7c-0.4,0.9-0.2,1.9,0.6,2.5
	c0.2,0.1,0.5,0.1,0.7,0.1c0.1,0.2,0.1,0.3,0.1,0.5c0.1,0.4,0.1,0.9,0,1.4c-0.9,0-1.6,0.7-1.6,1.5c-0.3,1.3-0.1,2.4,1,3.1
	c0.2,0.1,0.5,0.2,0.8,0.3c0.3,0.7,0.7,1.4,1.1,2.1c-1,0-1.9,0.3-2.7,0.9c-1,0.9-0.7,2.9-0.8,4.1c-0.3,2.4,0.3,2.7-1.1,4.9
	c-1.2,1.9-0.4,4.7-0.3,6.8c0,1.1-0.3,2.2-0.8,3.2c0.1,0.5-0.1,1-0.4,1.4c-0.6,0.7-1.7,1-1.9,1.8c-0.1,0.5-0.2,1.1-0.2,1.6
	c0.5,0.2,0.8,0.7,0.7,1.2c-0.1,1.3,0.5,2.6,1.6,3.3C633.3,229.9,633.5,230,633.6,230z"/>
<path class="st0" d="M556.5,334.4c-0.2,0.7-0.1,1.5,0.3,2.1c0.3,0.5,0.7,1,1.3,1.2c0.7,0.1,1.5-0.1,2.1-0.4c0.8-0.3,1.2-1.2,1.9-1.7
	c0.7-0.6,1.2-0.6,1.5-1.8c0.4-1,1.9-0.5,2.9-0.4c1,0,1.8-1,2.2-1.9c0.2-0.5,0.6-0.9,0.8-1.3c0.2-0.3,0.5-0.5,0.9-0.5
	c0.8-0.6,1.7-1.1,2.6-1.4c0.9-0.1,1.7-0.1,2.2-0.9c0.2-0.4,0.2-0.9,0.5-1.3c0.3-0.3,0.7-0.6,1.1-0.8c0.7-0.5,1.6-0.3,2.5-0.6
	c0.8-0.5,1.6-1,2.2-1.7c0.8-0.4,1.5-1,2-1.8c0.4-0.8,0.2-2,0.8-2.6s1.4-1.1,1.9-1.7s1.1-1.4,1.7-2c0.3-0.3,0.7-0.7,1-0.9
	c0.4-0.3,0.8-0.5,1.3-0.6c0.9-0.4,2.1,0.2,3-0.1c0.8-0.5,1.5-1.3,1.8-2.2c0.4-0.8,0.1-1.9,0.5-2.7c0.4-0.8,1.6-1,2.3-1.6
	c0.7-0.5,1.4-0.9,2.2-1.3c0.4-0.2,0.4-1.5,0.8-1.7s0.9-0.2,1.3-0.5c0.8-0.4,1.8-0.8,1.9-1.8l0.2-1.5c0.1-0.4,0.2-0.8,0.4-1.2
	c0.2-0.9,0.4-1.7,0.7-2.5c0.3-0.3,0.7-0.6,1.1-0.8c0.2-0.4,0.6-0.7,1.1-0.9c0.5-0.1,1.3,0.2,1.7,0c0.4-0.2,0.9-0.4,1.3-0.7
	c0.3-0.4,0.5-0.9,0.7-1.3c0.1-0.5,0.2-1,0.1-1.4c0-0.5,0.2-0.9,0.4-1.3c0.2-0.4,0.2-0.9,0.4-1.3c0.5-0.7,1.5-1,2.1-1.6
	c0.6-0.6,1.2-1.2,1.9-1.7c0.1-0.1,0.3-0.3,0.4-0.5c0.1-0.8,0.1-1.6,0-2.5c-0.1-0.7,0.4-1.4,1.2-1.5c0.5-0.1,0.9-0.2,1.3-0.4
	c0.6-0.6,1.1-1.2,1.4-2c0.2-0.8,0-1.7,0.1-2.6c0.2-0.9,0.4-1.7,0.7-2.6c0.3-0.8,1.2-1.1,1.8-1.8s1-1.8,1.6-2.5
	c0.6-0.7,1.6-1.2,1.8-2c0.2-0.8-0.8-1.8-0.9-2.8c0.1-0.5,0.3-1,0.5-1.5c0.1-0.2,0.1-0.4,0.3-0.6c0.3,0,0.5,0,0.8,0
	c0.3-0.1,0.5-1.1,0.8-1.2c0.3-0.1,0.7,0.4,0.8,0.2c0.2-0.4,0.3-0.9,0.3-1.4c0-1,0.2-1.9,0.7-2.7c0.2-0.3,0.5-0.5,0.7-0.8
	c0.1-0.9,0-1.9-0.2-2.8c-0.2-0.6,0.1-1.2,0.6-1.6c0.7-0.4,1.4-1,1.8-1.7v-0.1l0.2-0.4c0.6-1.5,0.5-3.2-0.3-4.6
	c-0.1-0.3-0.1-0.7,0-1.1c0.4-0.9,1.2-1.7,2.1-2.1c0.2-0.6,0.3-1.3,0.5-1.9c0.3-0.8,0.5-1.6,0.6-2.4c0-0.1,0.1-0.2,0.1-0.3
	c-0.6-2.9-2.8-5.1-4.9-3.7v0.1c-0.3,0.7-1.2,1.2-1.5,2s0,1.7-0.1,2.6l-0.3,1.6c0.4,1.2,1,2.4,0.6,3.6c-0.1,0.4-0.4,0.7-0.8,0.8
	c-1.3,0.5-2.3,1.4-3,2.6l-0.2,0.7c-0.1,0.6-0.2,1.1-0.4,1.7c0,0.6,0.2,1.1,0.4,1.6c0.2,0.5,0,1-0.4,1.4c-1.1,0.9-2,2.2-2.4,3.6
	c0.1,0.5,0,0.9-0.3,1.3l-0.1,0.1c-0.1,0.6-0.1,1.3-0.1,1.9c0.1,0,0.1,0.1,0.1,0.1c0.1,0.3,0.1,0.7,0,1.1c0.1,0.3,0.1,0.6,0,0.9
	c-0.4,0.3-0.8,0.6-1.3,0.8c-0.8,0.5-1.4,1.1-2,1.8c-0.5,0.6-0.8,1.3-0.8,2.1c-0.1,0.9-0.1,1.7-0.2,2.6s-1.1,1.5-1.5,2.2
	c-0.4,0.8-0.8,1.5-1.4,2.2c-0.6,0.6-1.4,0.8-2,1.5s-0.7,1.7-1.1,2.4c-0.6,0.6-1.1,1.3-1.5,2c-0.4,0.7,0,1.6-0.2,2.5
	c-0.2,0.9-0.5,1.7-0.9,2.5c-0.3,0.8-1.3,1.3-1.8,2c-0.3,0.3-0.5,0.6-0.8,0.9c-0.2,0.4-0.5,0.8-0.8,1c-0.4,0.2-0.7,0.5-0.9,0.9
	c-0.3,0.2-0.5,0.4-0.8,0.5c-0.3,0.7-0.6,1.4-0.8,2.1c0.1,0.4,0.3,0.7,0.3,1.1c0,0.4-0.2,0.8-0.6,1c-0.2,0.4-0.4,0.7-0.6,1
	c-0.6,0.6-1.2,1.1-1.9,1.6c-0.4,0.3-0.6,1.1-1,1.3s-1,0.4-1.4,0.5c-1,0.3-1.7,0.5-2,1.4c-0.1,0.4,0,0.9-0.1,1.4
	c0,0.4-0.1,0.9-0.2,1.3c-0.3,0.8-0.7,1.6-1.1,2.4c-0.5,0.8-1.3,1.4-2.1,1.9c-0.8,0.4-2-0.1-2.8,0.3s-0.9,1.4-1.2,2.2s-0.6,1.9-1,2.6
	c-0.2,0.4-0.5,0.8-0.8,1.1c-0.3,0.3-0.9,0.3-1.2,0.6c-0.6,0.6-1.2,1.1-1.9,1.6c-0.7,0.5-1.5,0.8-2.1,1.3c-0.6,0.6-1.4,1.1-2.2,1.5
	c-0.8,0.2-1.5,0.6-2.1,1.2c-0.5,0.6-1,1.3-1.4,2c-0.5,0.7-1.5,1-2.2,1.6c-0.3,0.3-0.3,1.1-0.8,1.3c-0.4,0.1-0.9,0.4-1.3,0.5
	c-0.8,0.2-1.6,0.1-2,0.9s-0.7,1.9-1.3,2.5c-0.3,0.3-0.7,0.4-1.2,0.5c-0.5,0.1-1,0.2-1.5,0.3c-1,0-2.1,0-2.5,0.9
	c-0.4,0.9-0.3,2.1-1.4,1.9c-1.2-0.4-1.7,0.5-2.5,0.8c-0.8,0.2-1.5,0.6-2.2,1C556.8,332.8,556.4,333.5,556.5,334.4z"/>
<path class="st0" d="M548.7,341.6c1.1,1.3,2.6,0.1,3.5-0.9c0.9-1,0.9-1.9-0.2-2.6s-2.2-0.3-3.2,0.6
	C547.6,339.7,548,340.7,548.7,341.6z"/>
<path class="st0" d="M545.6,70.3l-4.8-4.5c-0.4-0.4-0.8-0.8-1.2-1.1l-1.3-1l-2.5-2.1c-2.4-1.5-5.6-4.1-7.8-5.5
	c-0.7-0.4-1.4-0.9-2.1-1.3l-2.4-1.2c-1.5-0.7-2.9-1.6-4.3-2.5c-1.8-1.2-3.5-2.3-5.3-3.5c-2.8-1.4-5.7-2.5-8.6-3.4
	c-0.7-0.2-1.4-0.5-2-0.7s-1.3-0.5-1.8-0.7c-1.4-0.5-2.9-1-4.4-1.5c-0.8-0.3-1.5-0.6-2.3-0.8l-2.5-0.8c-5.1-1.7-9.9-3.1-14.8-4.4
	c-2.4-0.5-4.9-1.2-7.4-1.5s-5.1-0.6-7.8-0.7c-2,0.4-4.1,0.5-6.2,0.2c-8.4-0.7-11.3,0.2-11.6,1.3s2.1,2.1,4.1,2.6
	c1.3,0.3,2.5,0.5,3.8,0.5c1.5,0.2,3.1,0.2,4.8,0.4s3.4,0.2,5,0.4l4.6,0.5c2.6,0.3,4.6,0.7,6.4,1c1.7,0.3,3.2,0.5,4.6,0.8
	s2.8,0.7,4.4,1.2c1.9,0.6,3.8,1.3,5.7,2.2c1,0.4,2,0.9,3.1,1.3s2.3,0.8,3.4,1.3c2.3,0.9,4.8,1.7,7.2,2.6l7.3,2.8c2.3,1,4.6,2,6.6,3
	c2.3,1.2,4.4,2.4,6.4,3.7c1,0.6,2,1.3,2.9,2l2.7,2.1c1.9,1.1,3.7,2.4,5.2,4c1.1,1.1,2.1,2.3,3.1,3.5c0.9,1.3,1.9,2.4,3.1,3.4
	c0.8,0.8,1.8,1.5,2.7,2.3s1.8,1.7,2.7,2.5c0.5-0.1,2,0.7,4,2.7c1.9,2,4,3.9,6.1,5.6c1.2,1.1,2.6,2,4.1,2.6c1,0.3,1.4-0.2,1-1.4
	c-0.3-0.9-0.7-1.7-1.2-2.5c-0.7-1.3-1.6-2.6-2.6-3.7c-0.6-0.7-1.2-1.5-1.6-2.4l-2-2.3c-0.7-0.8-1.4-1.5-2.1-2.3
	C548.6,73.4,547.1,71.8,545.6,70.3z"/>
<path class="st0" d="M167.2,266.9c0.2,0.8-0.4,1.3,1,2.7c2.3,2,4.6,3.8,7.1,5.4c3.1,2.1,6.2,3.5,9.5,5.3s5.1,3,8.6,4.3
	s6.6,4.6,9.6,6.9c3.5,2.4,7.4,4.3,11.4,5.7c1.8,0.6,4,1.6,5.8,2.3c1.4,0.6,2.7,1.3,4,2.1c3.3,1.7,8.4,3.9,11.6,5.8s5.4,3.4,9,4.5
	c1.8,0.6,3.2,0.6,4.9,1.2s3.7,1.4,5.5,2.1c3.5,1.4,5.9,3,9.4,4.4c1.8,0.7,3.7,1.4,5.8,2s4.1,1.1,5.9,1.6s3.7,1.2,5.7,1.7
	c1.9,0.5,3.8,0.9,5.8,1.2c3.7,0.5,6.6,0.1,10.3,0.7s7.5,1.5,11.2,2s7.7,0.7,11.4,1.2c1.8,0.2,3.9,0.4,5.8,0.6s4,0.6,5.9,0.9
	c3.7,0.5,5.7,2,9.5,2.4c4.1,0.3,8.3,0.3,12.4-0.2c3.7-0.3,6.3-1.4,10-1.9c2-0.2,3.9-0.3,5.9-0.2c2,0,4,0.1,5.9,0
	c3.7-0.2,6.9-0.2,10.7-0.4c1.3-0.1,2.6-0.4,3.8-0.8c1.2-0.4,2.5-0.7,3.8-0.8c1.9-0.1,3.4,0.1,5.2-0.1s3.8-0.3,5.6-0.5
	c2-0.2,3.9-0.6,5.7-1.3l5.4-2c1.8-0.6,3.2-1.1,4.9-1.6s3.4-1.2,5-1.8s3.2-1.2,5-1.8s3.7-0.7,5.5-1.2c1.8-0.7,3.7-1.1,5.7-1.4
	c1.9-0.2,3,0.3,4.8-0.1s3.8-0.7,5.6-1.2c2-0.7,4-1.5,6-2.4c1.7-0.8,3.3-1.7,4.9-2.6c1.6-0.9,3.3-1.8,5.1-2.5c1.7-0.8,3.3-1.7,5-2.5
	c3.4-1.6,6.9-2.2,10.4-3.8l9.7-4.1c0.8-0.3,1.5-0.7,2.3-1.1c2.6-1.7,5.1-3.5,7.4-5.5c2.2-1.7,4.7-3.1,7.3-4.1
	c1.4-0.4,2.9-0.9,4.3-1.5c3.2-1.7,6.2-3.6,9.1-5.7c2.9-2.2,4.9-4.5,7.7-6.9c1.4-1.2,2.9-2.5,4.3-3.8l4.3-3.8
	c2.9-2.5,5.6-4.1,8.5-6.5s6.4-6.4,9.2-9s5.7-5,7.9-8.2s2.2-5.5,3.8-8.9c0.8-1.7,2.5-4.4,3.4-6.1c0.5-0.8,1-1.8,1.5-2.6
	c0.5-0.8,0.6-0.1,1.2-0.8s2.5-5,3.1-5.7s0.5,0.9,0.9,0c0.8-1.8,1.3-4,2-5.8s1.1-3.9,1.7-6c0.5-2.1,1.3-4.1,1.8-5.9
	c0.4-1.5,1-2.9,1.4-4.2c0.2-0.9,0.3-1.9,0.4-2.8l0.2-2.8c0.1-1.9,0.2-3.7,0.2-5.5c-0.1-2.5,0.2-5.1,0.8-7.6c0.4-1.6,0.8-3.1,1-4.7
	c0.3-1.7,0.5-3.3,0.6-5c0-0.2,0-0.3,0-0.5c0-0.7,0-1.4,0-2.1c0-1.7,0-3.4-0.2-5.1c-0.2-1.7-0.4-3.3-0.7-4.9s-0.6-3.2-1-4.6
	c-0.4-1.4-0.9-2.8-1.4-4c-0.4-1.4-0.8-2.9-1-4.4c-0.4-2-0.7-4.1-0.9-6.2l-0.1-1.4l-0.1-1.3c-0.1-0.9-0.1-1.7-0.1-2.5l-1.2-4.2
	c-0.4-1.4-1-2.7-1.4-4c-0.6-1.8-1.1-3.5-1.8-5.1s-1.5-3.2-2.2-4.9c-0.2-0.4-0.4-0.9-0.6-1.4c-3.2-5-6.4-8.6-8.4-10
	c-2-1.4-2.8-0.6-1.4,3.4l0.3,0.5c0.7,1.6,1.4,3.2,2,4.8c0.6,1.6,1.2,3.1,1.9,4.8c0.7,1.7,1.5,3.3,2.4,4.9c0.9,1.6,1.5,3.3,2.2,5
	l1.2,3.2l1.1,3.4c2.3,4.2,3.9,8.8,4.8,13.5c0.3,1.5,0.3,3,0.2,4.5c-0.1,0.9-0.2,1.9-0.3,3s-0.2,2.3-0.3,3.6c-0.1,1.3,0,2.6-0.1,4
	c-0.1,1.4-0.2,2.8-0.2,4.2l0.1,3.2c0.1,2.5,0,5.1-0.1,7.7c0.1,1.1,0.1,2.1,0.1,3.1s0.1,2,0.2,2.9c0.1,1,0.1,2,0,3
	c-0.1,1.1-0.4,2.2-0.7,3.2c-0.5,1.6-0.9,3.1-1.3,4.6s-0.9,3-1.4,4.4s-0.8,2.9-1.3,4.3s-0.9,2.8-1.4,4.3c-0.2,1-0.4,1.9-0.6,2.9
	c-0.3,0.9-0.7,1.8-1.1,2.7l-0.2,0.4c-0.4,1.2-0.8,2.4-1.2,3.7l-0.3,0.9l-0.3,0.9l-0.7,1.9c0.1,0.1,0.1,0.1,0.1,0.2
	c-0.4,1.4-0.9,2.7-1.6,4.1c-0.4,1.1-0.8,2.1-1.3,3.1c-1,1.5-2.3,2.7-3.4,4.1l-7.1,8.3c-1.2,1.4-2.2,2.6-3.2,3.8l-3,3.9l-1.7,2.1
	l-1.6,2.1c-1.1,1.4-2.2,2.8-3.4,4.1c-1.3,1.5-2.7,2.8-4.3,4l-4.6,3.6c-2.9,2.4-5.9,4.7-9,6.8c-3,1.9-5.8,3.1-8.8,4.9
	c-3.2,1.9-6.5,4.5-9.6,6.5c-1.6,0.9-3.2,1.8-4.9,2.7l-2.4,1.3c-0.8,0.4-1.6,0.9-2.4,1.4c-3.1,1.9-4.9,3.8-8.1,5.7
	c-1.5,1-3.2,2.1-4.9,3c-1.7,0.9-3.4,1.9-5,2.7c-3.3,1.8-7.4,3-10.8,4.5c-1.7,0.8-3.3,1.3-5,1.9c-1.8,0.8-3.6,1.6-5.5,2.2
	c-1.8,0.5-3.5,1-5.2,1.7c-1.3,0.4-2.6,0.6-3.9,1l-9.1,3.7c-0.9,0.7-1.8,1.3-2.7,1.8c-1.6,0.9-3.1,1.1-4.9,1.6s-3.1,1-4.9,1.5
	s-3.5,0.9-5.1,1.2h-0.1c-1.9-0.4-5.5-0.3-6.6,0.4c0,0-0.1,0-0.1,0.1c-0.3,0.2-0.4,0.6-0.2,0.9l-1.6,0.5c-1.1,0.3-2.3,0.6-3.4,0.7
	l-0.9,0.1c0.3-0.1,0.6-0.4,0.8-0.7c0.8-1.2,0.6-2.2-3.4-2.6c-3.4-0.4-6.3-0.3-8.1,0.7c-1.7,0.9-0.8,1.9,2.4,2.5
	c1.1,0.2,2.4,0.4,3.6,0.5h-0.3c-3.4,0-6.9,0.4-10.2,1.1c-1.8,0.4-3,1.1-4.8,1.5s-2.9,1.1-4.7,1.4c-3.6,0.6-7.5,1.6-11.2,2
	c-1.8,0.2-4,0.5-6.2,0.5s-4.4,0.1-6.2,0.1c-3.7-0.1-5.8-1.3-9.5-1.5s-7,0.4-10.6,0.6s-7.8,0.7-11.5,0.7c-1.9,0-4.1,0-5.9-0.2
	s-3.9-0.8-5.7-1c-3.7-0.4-7.3-0.9-10.9-1.5s-7.1-1.5-10.6-2.3c-3.8-0.7-7.6-1.6-11.3-2.8c-1.7-0.6-3.4-1.2-5-1.7s-3.2-1-5-1.5
	s-3.4-0.9-5.1-1.2l-5.1-1.2c-1.9-0.5-3.8-1.1-5.6-1.8c-1.9-0.8-3.8-1.5-5.5-2.2s-4.2-0.8-5.9-1.6s-3.8-1.8-5.4-2.6l-2.3-1.2
	c-0.7-0.4-1.3-0.8-2-1.1c-1.4-0.8-2.9-1.4-4.5-1.9c-3.6-1-7.1-2.2-10.6-3.6c-0.9-0.4-1.6-0.8-2.4-1.2s-1.5-0.9-2.3-1.5
	c-1.5-1-3.8-2.4-5.3-3.4c-3-2.2-6.5-4.8-10-6.1s-6.2-1.7-9-4.2c-2.7-2.7-6.2-4.3-9.3-6.3s-5.7-4.1-8.9-5.9c-2.3-1.4-4.9-2.5-7.5-3.1
	C169,266.5,166.8,265.7,167.2,266.9z"/>
<path class="st0" d="M132.3,244.1c0.5,2.4,6.9,6.5,12.3,9.6c4.8,2.7,6.6,2.9,4.9,0.4c-1.9-2.7-5.8-5.5-10.8-8.7
	C132.8,241.8,132,242.4,132.3,244.1z"/>
<path class="st0" d="M434.4,36.9c2.7-1.2,1.1-2.1-4.5-1.9c-6.3,0.2-14,1.5-15.3,3.6c-0.5,0.7-0.6,1.3,0.3,1.6
	c0.7,0.1,1.4,0.2,2.1,0.1c1.3-0.1,2.7-0.2,4-0.4C426.7,39,431.5,38.3,434.4,36.9z"/>
<path class="st0" d="M320.3,305.6c-1.2,0.8-0.5,2.3,3.5,3.8c0.5,0.2,1,0.5,1.5,0.8l3.4,1.2l3.5,1.2l3.6,1.2c1.2,0.4,2.4,0.7,3.6,1.1
	c1.7,0.1,3.9,0.9,5.4,1.2c1.8,0.3,4,0.2,5.7,0.8c1.2,0.4,2.3,0.9,3.5,1.3c1.8,0.2,3.6,0.3,5.4,0.3c0.8,0,1.6,0.1,2.4,0.2
	c1.7,0.1,3.6,0.3,5.6,0.6c6.1,0.9,11.5,2.2,17.6,2.2c1.1-0.5,2.4-0.6,3.6-0.4c4.8,0.7,6.6,0,6.8-1s-1.1-2.2-2.2-2.8
	c-2.4-1.1-7.4-1.1-10.7-1.5c-6.2-0.6-7-0.2-12.6-2c-2.8-0.8-5.7-1.3-8.6-1.5c-3.1-0.3-6.2-0.4-8.9-0.7c-2.8-0.4-5.6-1-8.3-1.9
	c-1.3-0.1-2.6-0.5-3.8-1c-2-0.9-3-2.2-5-2.7c-1.3-0.3-2.8-0.7-4.2-0.9c-0.3,0.4-1.3,0.6-2.9,0.2
	C324.5,304.5,321.5,304.7,320.3,305.6z"/>
<path class="st0" d="M10,162.6c0.4,0.6,0.3,1.3,1.5,1.6c1.7,0.2,3.4,0.3,5.1,0.3c2.1,0.1,4.1-0.7,6.2-0.9s3.4,0.1,5.5-0.9
	c2.1-0.7,4.6,0.8,6.7,1.3c1.2,0.3,2.4,0.4,3.6,0.4c1.2,0,2.5-0.1,3.7-0.4c1.2-0.2,2.4-0.2,3.6-0.2c0.9,0,1.7,0.1,2.6,0.4
	c2.5,0.2,4.9,0.7,7.3,1.4c2,0.7,3.4,1.6,5.5,1.7c1.1,0.1,1.9-0.2,3-0.1c1.1,0.2,2.2,0.4,3.2,0.8c1.9,0.7,3.7,1.5,5.4,2.5
	c2,0.9,4.6,1.4,6.6,2.1c2,0.9,4.2,1.6,6.3,2.2c2.1,0.5,3.9,0.1,5.9,0.9s3.9,1.9,5.9,2.7l1.5,0.6l1.5,0.7c1,0.4,2,0.9,3,1.4
	s2.1,1,3,1.6s1.9,1.4,2.8,2.1c1.7,1.3,2,3.1,3.7,4.5c0.9,0.7,1.9,1.4,2.9,1.9c1.1,0.7,2.1,1.2,3.1,1.7c1.9,1,3.7,1,5.7,2
	s3.5,3.1,5.2,4.4s2.9,2.8,4.5,4.3c0.8,0.7,3.1,1.5,3.8,2.3s1.2,1.6,1.9,2.4c1.5,1.6,2.9,3.4,4.9,4.3l3.1,1.4
	c0.9,0.4,1.8,0.9,2.6,1.5c1.8,1.1,3.7,1.8,5.4,3.1c0.9,0.7,1.5,1.6,2.3,2.3c0.9,0.7,1.8,1.5,2.4,2.4c0.6,1,0.5,1.9,1.2,2.7
	s1.4,1.8,2.2,2.6c1,0.8,2,1.5,3.1,2.2c0.9,0.5,1.9,1,2.9,1.4c1,0.5,1.9,1.1,2.8,1.7c0.9,0.6,1.9,1,2.8,1.7c1.8,1.4,3,3.2,4.6,4.6
	s3,2.7,4.6,4.2c0.4,0.4,0.8,0.7,1.2,1c1.6,0.8,3.3,1.5,5.1,2c1.6,0.6,3,1.6,4,2.9c0.5,0.8,1,1.5,1.6,2.2c1.6,1.3,3.4,2.5,5.2,3.6
	c1.9,0.9,3.7,1.3,5.7,2.2s4,1.8,6,2.8s3.2,2.5,5,3.8s4.6,2.6,6.4,3.8s3.3,2.9,5.3,3.8s3.6,0.2,5.8,0.8c1.3,0.5,2.5,1,3.7,1.7
	c0.5,0.2,1,0.5,1.5,0.8c0.4,0.3-0.1,0.5,0.3,1s2.8,1.5,3.2,1.9s-0.6,0.6-0.2,0.9c1,0.5,2.1,1,3.2,1.3c2.3,0.7,4.4,1.6,6.5,2.8
	c0.8,0.5,1.4,1,2.1,1.5c2,0.7,4.1,1.3,6.3,1.7c1.5,0.3,2.8,0.9,3.9,1.9c1.4,1.4,2.9,2.5,4.5,3.5l0.2,0.1l1,0.6
	c3.3,1.7,6.9,2.7,10.5,2.9c0.9,0.1,1.7,0.4,2.5,0.8c2.1,0.9,3.9,2.3,5.5,3.9c1.5,0.6,3.2,1.2,4.6,1.8c2,0.9,3.8,1.5,5.9,2.1
	c0.3,0.1,0.5,0.2,0.8,0.3c6.8,0.9,11.7-0.1,7.6-3.4l-0.3-0.1c-2-0.9-3.5-2-5.5-2.9s-4.3-1.1-6.3-1.8l-3.9-1.4
	c-2.9-0.1-5.7-0.8-8.4-1.8c-0.8-0.3-1.6-0.9-2.2-1.5c-2-2.2-4.4-4.1-7.1-5.5l-1.8-0.7c-1.4-0.6-2.8-1.2-4.2-1.8
	c-1.2-0.4-2.4-0.6-3.6-0.7c-1.2-0.2-2.4-0.7-3.4-1.5c-2.9-2.2-6.1-4.2-9.5-5.7c-1.2-0.3-2.3-0.7-3.3-1.3l-0.2-0.1
	c-1.4-0.5-2.9-1-4.5-1.5c0,0.1-0.1,0.1-0.2,0.1c-0.9-0.2-1.7-0.4-2.5-0.8c-0.7-0.1-1.3-0.3-2-0.6c-0.9-0.7-1.7-1.4-2.4-2.2
	c-1.7-1.4-3.4-2.7-5.3-3.9c-1.7-1.1-3.4-2-5.3-2.7c-2-0.8-3.9-1.4-6-2.1s-4-2.6-5.8-3.7c-1.8-1.1-3.9-2.3-5.6-3.6s-2.7-2.6-4.5-4
	s-4.1-2.3-5.9-3.5s-3.4-2.7-5.2-3.9s-3.5-1.4-5.4-2.4s-3.9-2.2-5.7-3.4s-3.5-3.1-5.3-4.5c-0.8-0.7-1.6-1.4-2.4-2.1
	c-1-0.6-1.9-1.4-2.7-2.2c-0.7-0.8-1.5-1.5-2.4-2.2c-0.6-0.5-1.1-1.2-1.6-1.8c-1.6-1.1-3.2-2.1-4.8-3.2c-0.7-0.1-1.3-0.2-2-0.4
	c-1.1-0.4-1.5-1.1-2.4-1.8s-1.6-1.1-2.4-1.8c-1.7-1.4-3-2.8-4.5-4.3c-0.8-0.8-2.6-1.7-3.3-2.5s-1.6-1.9-2.3-2.8
	c-1.1-1.7-2.6-3.2-4.4-4.3c-1-0.5-1.8-0.7-2.8-1.2s-1.8-0.6-2.7-1.2c-1.8-1.1-4-2.2-5.8-3.4c-2-1.4-4-2.9-5.8-4.5
	c-1.6-1.5-1.9-3.2-3.6-4.6s-3.7-2-5.7-2.9s-4.4-1.7-6.4-2.5c-1-0.4-2.2-1-3.2-1.5s-1.8-1.5-2.8-2s-1.9-1-2.9-1.5l-1.4-0.8l-0.2-0.1
	h1.2c2.5-0.1,5.5-0.3,8.2-0.6c4.8-0.3,6.3-1.1,3.8-2.3c-2.7-1.2-7.1-1.5-12.4-0.9c-3.1,0.4-4.6,0.9-5.3,1.4l0,0
	c-0.8-0.5-1.7-0.9-2.5-1.4c-2.2-0.8-4.3-1.8-6.3-2.9c-1.8-1.1-3.8-1.9-5.8-2.5c-2-0.6-4.1-1-6.2-1.2c-2.2-0.4-4.6-1.4-6.8-1.9
	c-1.1-0.2-2.6,0.1-3.7-0.3s-2.4-0.7-3.4-1.1s-1.9-0.8-2.8-1.1c-0.9-0.3-1.9-0.4-2.9-0.4c-2.2,0.1-4.5,0.4-6.7,0.3
	c-1.1-0.1-2.1-0.3-3.2-0.7c-0.5-0.2-1.2-0.4-1.8-0.5s-1.3-0.3-1.8-0.5c-2.2-0.7-4.8-1.5-7-1.1s-3.7,1.6-5.9,0.7s-4.5-0.4-6.7-0.6
	c-2.1-0.2-4.2-0.2-6.4,0c-1.7,0.2-3.3,0.8-4.6,1.9C10.7,161.1,9.5,161.8,10,162.6z"/>
<path class="st0" d="M0,168.2c1.2-0.5,1.9-1.7,1.7-2.9c-0.1-0.9-0.8-1.7-1.7-1.9"/>
<path class="st0" d="M728,163.3c-2.3-0.5-5.8,0.7-8,1.5c-1.7,0.6-3.3,1.6-4.5,3c-1,1-2.2,2-1.4,2.6c0.6,0.4,0.6,1.1,1.9,1.1
	c1.8-0.2,3.7-0.5,5.5-1c2.2-0.5,4.3-1.7,6.5-2.3"/>
<path class="st0" d="M699.7,178c2.9-1.9,3.4-3.1,1.4-3.3c-2.2-0.2-5.1,1-8.3,3c-3.7,2.3-3.4,3.3-2.1,4
	C692.4,182.6,696.4,180.1,699.7,178z"/>
</svg>
