<svg id="Calque_1" data-name="Calque 1" xmlns="http://www.w3.org/2000/svg" viewBox="0 0 728.05 387.95"><defs><style>.cls-1{fill:#fff;}</style></defs><title>Vague</title><path d="M728,388H0V161.47c30.53,0,44.71-20,69-43.41,37.3-36,76.78-71.09,123.08-94.42,41.24-20.78,89.62-22,135.52-17C347.21,8.77,367,12,385,20.17s34.2,21.64,42.13,39.73,6.19,40.95-7.08,55.56c-12.29,13.52-33.56,17.92-50.21,10.39a35.9,35.9,0,0,1-16.06-13.73c-8.24-13.63-.18-39.56,13.56-47.61,0,0-55.36-17.22-55.36,65.45,0,50.78,79,78.05,117,80.72,0,0,25.15-4.36,72.51-16,82.63-20.38,130.68-21.28,130.68-21.28S682.1,154.7,728,163"/><path class="cls-1" d="M430.4,88.3a10.77,10.77,0,0,0-2,3.48c-0.74,1.67-1.48,3.78-2.31,6.16-0.75,2.11-1.63,3-2.09,3.12-0.84,1.7-1.67,3.45-2.56,4.93a21,21,0,0,0-1.38,3.27,14.45,14.45,0,0,1-1.44,3.39,9.24,9.24,0,0,1-.61,1c-0.26.32-.55,0.64-0.86,1a16.46,16.46,0,0,1-2,1.84,26.6,26.6,0,0,1-9.21,6.49,43.54,43.54,0,0,1-11.52,2.91c-4.09.52-8.12,0.54-11.56,0.74-1,0-1.84,0-2.64,0s-1.5-.13-2.16-0.21a18.18,18.18,0,0,1-3.51-.77,29.43,29.43,0,0,1-3.45-1.32,43,43,0,0,1-4.56-2.33,36.56,36.56,0,0,1-6.1-4.57c-2-1.76-3.62-3.61-4.94-4.71a11.27,11.27,0,0,0-2.14-1.38,1.8,1.8,0,0,0-1.81-.14c-0.37.32-.48,1.17,0.1,2.69a18.08,18.08,0,0,0,4.71,6.18c2,1.82,3.32,3.2,3.64,4a33.57,33.57,0,0,0,11.78,6.38,49.65,49.65,0,0,0,13.19,2,81.83,81.83,0,0,0,8.33-.19,22.34,22.34,0,0,1,3.51-.48c1.2-.08,2.45-0.32,3.78-0.54s2.66-.68,4-1.12c1.62-.93,3.19-1.82,4.73-2.86,2.29-1.38,5.23-2.79,7.42-4.39,0.92-.71,2-1.74,3-2.74s2.07-2.13,3-3a47.8,47.8,0,0,0,5.83-9.64,57.51,57.51,0,0,0,3.31-10.12,13.6,13.6,0,0,1,.15-2.42C432.91,88.78,431.55,87.14,430.4,88.3Z"/><path class="cls-1" d="M61.08,129.64c2.55-1.76,4.65-4.76,6.44-7.27,0.9-1.25,2.34-2.88,3.3-4.08a26.51,26.51,0,0,1,3-3.32c2.24-2.07,5-3.62,7.5-5.4S85,106,87,103.73c1-1.16,2.36-2.54,3.39-3.67s3-2,4.1-3c2.27-2,4.75-4.78,7.21-6.59s4.63-3.25,7-5.19a61.48,61.48,0,0,0,6.32-6,88.21,88.21,0,0,1,7.2-6.41c2.28-2,4.39-4.05,6.71-6s4.62-3.76,7-5.62c1.22-.9,2.32-2.28,3.56-3.15s2.74-1.95,4-2.73c2.64-1.54,5.72-3,8.38-4.52s5.29-2.48,7.65-4.38,3.15-3.83,5.55-5.72a69.38,69.38,0,0,1,8.61-5.61c0.67-.37,1.35-0.73,2.05-1.08l2.15-1c1.45-.64,2.9-1.27,4.27-1.92s2.44-.77,3.87-1.3,2.54-.64,4-1.2a20.35,20.35,0,0,0,3.74-1.95c1.15-.69,2.26-1.48,3.5-2.36s2.81-1.92,4.1-2.72,4-1.41,5.35-2.1c0.67-.34,1.32-0.68,2-1l2-.84c1.3-.55,2.61-1.07,4-1.6,0.71-.26,1.35-0.47,2-0.64l2-.5c1.45-.41,2.5-1,4.06-1.06a15.18,15.18,0,0,1,2.7.23c2.62-.42,5.25-0.88,7.9-1.35,1.06-.31,2.09-0.79,3.17-1a35.33,35.33,0,0,0,4.34-1.1,30,30,0,0,1,4.79-.84c1.48-.28,2.83-0.61,4.32-0.84,3.06-.36,6.44-1.34,9.54-1.47l4.67-.13c1.6,0,3.2-.05,4.68,0,3,0.15,5.11.77,8.12,0.79s6.1-.44,9.12-0.43,6.54,0.5,9.62.41c2.93-.1,5.39-0.68,8.33-0.74s6.32,0.23,9.33.41c1.54,0.08,3.2,0,4.86,0a25.88,25.88,0,0,1,4.83.43c3,0.56,5.74,1.35,8.72,2A65.78,65.78,0,0,0,340,11.53c3,0.26,6.05.33,9.11,0.4a38.93,38.93,0,0,1,4.49,0c0.75,0.13,1.94.76,2.67,1A18.87,18.87,0,0,1,359.63,14a0.17,0.17,0,0,1,.11.18c2.11,0.81,4.15,1.56,6.12,2.29l0.37,0.07a18.23,18.23,0,0,1,4.55,1.66c4.67,1.62,9.29,3.06,14.47,4.61a14.77,14.77,0,0,1,2.49,1.05,11.08,11.08,0,0,1,2,1.37,44.63,44.63,0,0,0,3.82,3.23c0.89,0.56,1.79,1.13,2.66,1.72L398.78,32c0.71,0.52,1.36,1.07,2,1.59a89.56,89.56,0,0,0,10.43,6.28,11.42,11.42,0,0,1,2.89,2.33,30.71,30.71,0,0,1,5.75,10.14l1.43,2.47,1.27,2.49a37.36,37.36,0,0,1,1.6,4.11c0.21,0.71.42,1.41,0.65,2.1l0.36,1c0.1,0.35.22,0.69,0.34,1,0.24,0.67.51,1.3,0.8,1.92s0.51,1.26.78,1.88,0.54,1.25.76,1.91,0.4,1.33.56,2l0.1,0.49c1.37,3.12,2.41,3.31,3.23,1.34s1.12-6.08.25-11c-0.13-.4-0.28-0.8-0.39-1.19-0.46-1.54-1-2.92-1.56-4.32s-1.23-2.7-2-4.09c-0.58-1-1.12-2.06-1.73-3.13s-1.26-2.13-1.92-3.16a60.43,60.43,0,0,1-6.94-6.69,25.94,25.94,0,0,1-2.31-3,35.37,35.37,0,0,0-10.64-11.56l-1.47-1-0.32-.21a31.16,31.16,0,0,0-7.48-3.36,14.58,14.58,0,0,1-2.86-1.29,19.59,19.59,0,0,1-2.68-1.71,52.72,52.72,0,0,0-7.9-4.85l-3.55-1c-3-.86-6.61-2.37-9.53-3.52A36.45,36.45,0,0,0,364,8.64c-0.77-.15.27,0.71-0.54,0.73s-4.38-1.05-5.19-1-0.43.6-1.19,0.49-1.63-.31-2.38-0.49c-1.49-.39-4.09-0.75-5.57-1.25-3-1-4.27-2.57-7.32-3.18s-6.11-.26-9.19-0.37-7.33-.79-10.41-0.82-5.64.42-8.73,0.07-6.21-.77-9.25-1.22-5.35-1.14-8.33-1.48A63.9,63.9,0,0,0,287,.21a23.47,23.47,0,0,0-3.62.93,16.1,16.1,0,0,1-6.88.32A52.69,52.69,0,0,0,269,.54c-0.74,0-1.46.1-2.13,0.19-3,.52-5.63,1-8.63,1.36s-5.85,1.58-9,1.92c-1.53.22-3.06,0.14-4.6,0.33A37.54,37.54,0,0,1,240,4.7a37,37,0,0,0-4.58.17,42.05,42.05,0,0,0-5.28.9c-1.49.46-3,1.22-4.48,1.76s-2,1.44-3.34,2.25a20.13,20.13,0,0,1-4.54,1.67c-0.73.23-1.45,0.55-2.17,0.85a19.26,19.26,0,0,1-2.14.9,36.54,36.54,0,0,1-4.29,1.05l-2.14.43c-0.71.18-1.43,0.38-2.17,0.62-1.48.46-2.6,0.83-4.14,1.17l-2.35.53-2.32.63a28,28,0,0,0-8.28,4.4c-1.3.86-2.16,1.75-3.45,2.61s-4.54,1.72-5.82,2.59c-2.56,1.73-4.66,3.32-7.22,5s-5.25,4.13-8,5.58-5.1,1.7-7.8,3.2-6.21,3.45-8.51,5.52-2.93,4.16-5.26,6.16c-1.14,1-2.47,2.32-3.67,3.26s-2.61,1.94-3.83,2.87c-2.41,1.91-5.13,3.69-7.61,5.51s-4.82,4-7.26,5.86-4.76,2.54-7.35,4.22a61,61,0,0,0-7.43,6.22c-2.3,2-5.33,4.42-7.45,6.65s-3.35,4.31-5.59,6.39C90.43,94.77,89.21,96,88,97s-2.28,1.35-3.51,2.27c-2.47,1.84-3.69,3.66-5.62,6.07s-5.31,5.37-7.46,7.54a18.25,18.25,0,0,1-2.66,2.62c-1.25.9-2.78,2.22-4.07,3.1A31.42,31.42,0,0,0,57,125.63c-1.76,2.55-3.32,6-6,7.64-2.82,1.45-3.84,2.91-6.16,4.84s-4.74,3.37-6.9,5.39c-0.86.77-1.87,1.68-2.8,2.56a25.71,25.71,0,0,0-2.39,2.29c-1,1.21-.41,1.71-0.54,2.46-0.1.52,0.34,0.68,1,.61a18.38,18.38,0,0,0,2.42-.56,19.32,19.32,0,0,0,2.73-.86,19.73,19.73,0,0,0,3.5-2.09,63.72,63.72,0,0,0,6.52-6.15c1.09-1.1,2.27-2.14,3.38-3.25a15.77,15.77,0,0,0,2.91-3.7C56.35,132.15,58.54,131.42,61.08,129.64Z"/><path class="cls-1" d="M357.91,72.55c-0.32.32-.63,0.64-0.93,1a10,10,0,0,0-1.48,1.91,15.06,15.06,0,0,0-1,1.95A5.62,5.62,0,0,0,354.2,79c0,0.86.29,1.22,1.05,0.75a10.45,10.45,0,0,0,1.31-1.17,22.15,22.15,0,0,0,1.66-1.77c0.62-.6,1.25-1.25,1.81-1.89s1.18-1.15,1.61-1.68,0.89-1,1.27-1.49a6.42,6.42,0,0,0,.83-1.28c0.33-.74.16-1.18-0.95-0.86a11.12,11.12,0,0,0-1.74.72A13.94,13.94,0,0,0,359,71.69,12.83,12.83,0,0,0,357.91,72.55Z"/><path class="cls-1" d="M16.87,157.48a4.48,4.48,0,0,0-1.57-.1c-0.71,0-1.62,0-2.69.16-2.4.36-5.12,0.32-7.35,0.69-2.26.13-4.09,0.53-4.8,1.41-1,1.24-.77,2.23,5,2.38,1.23,0,2.4-.16,3.51-0.28a15,15,0,0,0,3.09-.57,20.94,20.94,0,0,0,2.56-.91q0.57-.25,1.06-0.53a7.93,7.93,0,0,0,.87-0.66C17.47,158.24,17.55,157.71,16.87,157.48Z"/><path class="cls-1" d="M350.44,85.92c-1,.45-2,2.32-2.53,4.84l-0.2,1-0.1,1c-0.06.69-.11,1.39-0.14,2.1s0.06,1.43.1,2.14L347.64,98c0,0.35.11,0.69,0.17,1a8.75,8.75,0,0,0,1.56,4.35c0.52,0.53.94,0.15,1.25-1.07,0.65-2.64.47-6.37,1.05-11C352.49,86,352,85.33,350.44,85.92Z"/><path class="cls-1" d="M287.92,62.25c-0.77.88-.59,1.43,0.27,1.66a10.9,10.9,0,0,0,4.39-.3,50.77,50.77,0,0,0,7.16-2c2.43-.79,3.86-0.8,4.27-0.49l3.17-.95c1.06-.28,2.09-0.56,3.06-0.85A19,19,0,0,0,314,57.68a37,37,0,0,1,3.79-1.83,22.31,22.31,0,0,1,5.73-1.3l3-.74c1-.19,2.05-0.36,3.11-0.53s2.12-.31,3.21-0.45,2.2-.15,3.34-0.21a93.7,93.7,0,0,1,13.37.43c4.61,0.42,9.08,1.07,12.89,1.37a31.49,31.49,0,0,1,9.05,1.9A49.24,49.24,0,0,1,380,60.78c1,0.62,2.07,1.51,3.21,2.35l1.59,1.45,0.81,0.72,0.74,0.78c0.49,0.52,1,1,1.47,1.52s0.87,1,1.29,1.5c0.86,0.94,1.63,1.77,2.27,2.44,1.26,1.21,3.16,2.64,4,2.05,0.41-.31.56-1.19,0-2.87a14.08,14.08,0,0,0-1.53-3q-0.6-.85-1.37-1.85l-0.82-1c-0.31-.34-0.65-0.67-1-1-0.52-.52-1-1-1.39-1.48s-0.81-.85-1.13-1.23a6.68,6.68,0,0,1-1.21-1.8,36.93,36.93,0,0,0-12.34-7.45,72,72,0,0,0-13.74-3.49c-1.57-.29-3.08-0.49-4.52-0.69s-2.83-.36-4.19-0.55a27.11,27.11,0,0,1-3.71-.3,51,51,0,0,0-8.35-.5l-2.79.57a1.06,1.06,0,0,0-.66-1,30.39,30.39,0,0,0-9.93-4.25c-3.54-.75-6.49-0.39-4.81.9s7.26,3.29,10.5,4.09a17.86,17.86,0,0,0,3.13.56l-1.06.2c-1.38.2-2.9,0.36-4.44,0.46s-3.08.16-4.46,0.33c-1.18.19-2.64,0.54-4.12,0.86s-3,.59-4.28.76a152.86,152.86,0,0,0-21.62,7.63,10.07,10.07,0,0,1-2.21,1.3,23,23,0,0,0-3.54,2A10.13,10.13,0,0,0,287.92,62.25Z"/><path class="cls-1" d="M427.57,210.41a1.61,1.61,0,0,0,1.12-.94c0.48-1.17.41-2.17-1.75-2.72-1.87-.48-3.43-0.44-4.52.53s-0.59,1.9,1.15,2.56a9.82,9.82,0,0,0,3.21.69,34.49,34.49,0,0,0-7.92,1.69c-3.11,1.2-4.55,2.92-7.63,4.14a95.59,95.59,0,0,1-10.65,3.41c-3.21.78-6.74,1.33-10,1.9-1.62.3-2.77,0.13-4.4,0.34s-2.82,0-4.45.22a39,39,0,0,0-8.81,2.33c-1.57.5-3.52,1.06-5.11,1.49s-4.58.31-6.19,0.58a74.12,74.12,0,0,1-9.33.9c-1.64,0-2.91-.09-4.54-0.16s-2.92.21-4.54-.29a19.53,19.53,0,0,1-2.7-1.11c-2.85-.39-5.72-0.83-8.61-1.31-1.2,0-2.43.09-3.63,0a48.7,48.7,0,0,0-4.86-.4,37,37,0,0,1-5.26-.72c-1.63-.2-3.14-0.34-4.77-0.6-3.32-.53-7.15-0.69-10.44-1.45-3.13-.73-6.77-1.62-9.82-2.61s-5.09-2.27-8.16-3.21-6.33-1.6-9.36-2.66-6.24-3-9.21-4.24c-1.43-.57-2.74-1.08-4.07-1.58s-2.61-1.11-4-1.82a44.3,44.3,0,0,1-4.09-2.73c-1.34-1-2.56-2.14-3.82-3.11-0.65-.49-1.28-1.05-1.94-1.6l-2-1.67a17.54,17.54,0,0,1-1.89-1.82,22.24,22.24,0,0,1-1.62-1.94,79.13,79.13,0,0,1-4.83-8.08c-0.82-1.36-1.44-2.6-2.11-3.8s-1.42-2.35-2.18-3.75c-1.62-2.73-3.26-5.5-4.82-8.35a33.92,33.92,0,0,1-2.31-4.2c-0.24-.78-0.25-2.22-0.42-3-0.07-.4-0.28-1.13-0.37-1.88a9.41,9.41,0,0,1-.11-1.93,0.17,0.17,0,0,1,.12-0.19l-0.15-1.78a16.46,16.46,0,0,1-.11-1.75q-0.05-1.74-.15-3.41l-0.08-.39a20.59,20.59,0,0,1-.05-5.14c0-1.31,0-2.62,0-3.93s0-2.63,0-4c0.08-2.67.2-5.4,0.42-8.28a14.17,14.17,0,0,1,1.56-5.26c0.88-1.39,1.77-2.94,2.68-4.56a42.63,42.63,0,0,1,3.14-5.84c0.5-.79,1-1.55,1.52-2.31a126,126,0,0,0,6.34-11.57,11.82,11.82,0,0,1,2.38-3.28,43.57,43.57,0,0,1,10.24-7.71c1.66-1.31,3.27-2.7,4.89-3.94,2.62-1.92,5.57-3.59,8.19-5.46s4.57-4,7.23-5.82l0.46-.31C277.27,70,277,69,274.73,69a10.94,10.94,0,0,0-2,.29c-0.77.19-1.63,0.46-2.58,0.79a42.93,42.93,0,0,0-6.44,2.78c-0.36.26-.72,0.52-1.08,0.76a79.65,79.65,0,0,0-7.74,5.72L249,84.33c-0.75,1.19-1.6,2.53-2.65,3.89-0.52.68-1.09,1.37-1.71,2.07s-1.22,1.46-1.92,2.19a20.08,20.08,0,0,1-3,2.72A39.78,39.78,0,0,0,228,107.51L227,109.21l-0.21.37a28.78,28.78,0,0,0-2.87,8.61,33.86,33.86,0,0,1-2.15,6.62,43.54,43.54,0,0,0-3,9.78c0,1.32,0,2.64,0,4.07a53.91,53.91,0,0,1-.09,5.62l-0.09,5.65a47.51,47.51,0,0,0,.42,5.56c0.17,0.85.54-.58,0.88,0.24s1,4.91,1.43,5.68,0.75,0.15,1,1,0.51,1.76.71,2.59a24.28,24.28,0,0,0,.92,3,26.91,26.91,0,0,1,.89,3,26.57,26.57,0,0,1,.63,4.38,11.87,11.87,0,0,0,1.06,4.3,24.26,24.26,0,0,0,1.19,2.31c0.46,0.73,1,1.42,1.5,2.11,1,1.38,2.09,2.74,3.21,4.07s2.21,3.09,3.54,4.68l1.91,2.39c0.65,0.75,1.33,1.42,2,2s1.27,1.15,1.88,1.67,1.27,1,1.88,1.46,1.23,1,1.84,1.49c0.3,0.26.6,0.53,0.91,0.81s0.64,0.53,1,.82l1.91,1.74c0.64,0.59,1.26,1.21,2,1.74,1.36,1.1,2.66,2.29,4,3.33s2.52,2,3.71,3a34.45,34.45,0,0,0,3.91,2.71,48.93,48.93,0,0,0,9.16,3.76,25.77,25.77,0,0,0,4.09.47,22.51,22.51,0,0,1,7.3,2,53.2,53.2,0,0,0,7.68,3.21c0.79,0.17,1.57.32,2.3,0.41,3.27,0.39,6.15.74,9.38,1.18,3.38,0.46,6.5.26,9.86,0.84,1.64,0.28,3.19.87,4.84,1.17a43.53,43.53,0,0,1,4.92,1.11,38.23,38.23,0,0,0,4.75,1.36c1.66,0.24,4,.79,5.73.85s3.52-.15,5.21-0.2,2.51-.77,4.21-1.07a27.56,27.56,0,0,1,5.25-.12c1.68,0,3.37-.33,5-0.32,3.34,0,6.23.54,9.62,0.55,1.69,0,3-.06,4.68,0s3.51,0.15,5.22.13c3.45,0.05,6.74-1.14,10-2.13,1.62-.52,2.79-1.17,4.39-1.7s5.24-.59,6.83-1.14c3.18-1.07,5.8-2.21,9-3.24s6.64-2.85,9.9-3.52,5.75-.37,9-1,7.46-1.45,10.55-2.63,4.53-2.94,7.65-4.06c1.55-.57,3.41-1.3,5-1.76s3.4-.89,5-1.33c3.2-.88,6.66-1.52,9.89-2.28s6.57-1.75,9.79-2.42,5.81-.29,9.11-0.7a82.35,82.35,0,0,0,10.19-2.32c3.21-.8,7.32-1.51,10.48-2.52s5.44-2.24,8.66-3c1.6-.41,3.4-0.92,5-1.17s2.86-.07,4.5-0.28c3.3-.4,5.44-1.4,8.58-2.52s7.92-2,11.14-2.77a20.92,20.92,0,0,1,3.94-.9c1.66-.14,3.82-0.47,5.49-0.55a38.83,38.83,0,0,0,11.14-1.91c3.12-1.21,6.62-3.28,10-3.26,3.43,0.25,5.24-.41,8.51-0.91s6.37-.54,9.57-1.31a70.22,70.22,0,0,0,7.63-2.06c1.64-.65,1.25-1.35,1.73-2,0.67-.9-1.4-1.18-3.29-1.51a19.66,19.66,0,0,0-7.35-.2c-3.3.46-6.14,1.36-9.37,2.1s-6.71,1-9.77,2.61c-3.1,1.36-5.51.79-8.86,0.94s-7.09,1.53-10.21,2.76c-1.56.61-3.85,1.24-5.42,1.79a32.26,32.26,0,0,1-4.71,1.32c-3.25.64-6.68,0.6-10,.9s-5.35,1.27-8.51,2.31c-1.58.52-3.62,1.08-5.21,1.57s-3.85.31-5.47,0.65c-3.24.71-7.07,2-10.36,2.46s-6.11.75-9.35,1.47a65.14,65.14,0,0,0-9.14,2.64c-3.13,1.14-6.93,1.93-10.14,2.78s-6.23,1.91-9.4,2.8-6.25,1.79-9.48,2.61c-1.61.42-3.28,1.32-4.9,1.7s-3.56.86-5.2,1.13c-3.28.58-7,1-10.29,1.5Z"/><path class="cls-1" d="M379.34,81.93A8.44,8.44,0,0,1,382,79.56c0.72-.5.94-1-0.59-1.19a3.41,3.41,0,0,0-1.12.08c-0.21,0-.45.08-0.68,0.15l-0.69.3a7.11,7.11,0,0,0-2.62,2.16,9,9,0,0,0-1.68,6.1,6.27,6.27,0,0,0,1.91,4.09c0.81,0.61,1.27.4,1.19-.5a20,20,0,0,1-.09-4.26A10.12,10.12,0,0,1,379.34,81.93Z"/><path class="cls-1" d="M395.24,83.19c-0.66,1.27-1.26,2.87-2.19,4.43A16.7,16.7,0,0,1,391.26,90a15,15,0,0,1-2.57,2.15,17.56,17.56,0,0,1-2.88,1.48,10,10,0,0,0-1.62.76c-0.68.43-.57,1,0.09,1.59a2.63,2.63,0,0,0,1,.49,6.39,6.39,0,0,0,1.52.12,9.93,9.93,0,0,0,3.91-1.21,12.84,12.84,0,0,0,3.75-3.21,12.54,12.54,0,0,0,2.3-4.54c0.68-2.75.3-4.55-.08-5.24S395.84,82,395.24,83.19Z"/><path class="cls-1" d="M270.85,103.07c0.62-1.11,1.55-2.3,2.36-3.49a8.75,8.75,0,0,0,1.71-3.65,6.09,6.09,0,0,1,1-2.82c0.46-.64,1-1.22,1.94-2.34s2.82-2.55,3.11-4a3.9,3.9,0,0,0-.74-2.8c-0.64-.74-1.89-0.86-3.53,1.17a1.85,1.85,0,0,1-1.76.87c-2.67,2-3.79,4.86-5.29,7.65a23.19,23.19,0,0,1-1.52,2.45,2.45,2.45,0,0,1-.64,1,9.18,9.18,0,0,0-1.65,2.26c0,0.68,0,1.34-.08,2-0.1.94-.91,1.8-1.25,2.65s-0.27,2-.8,2.67c-0.38,2.55-.5,5.14-0.74,7.45a1.57,1.57,0,0,1,.24.88c0,4.31,4.24,3,5.25-.43a1.29,1.29,0,0,1,1.18-1.07,15.22,15.22,0,0,0,.59-1.94c0.22-1-.61-1.78-0.79-2.89a3,3,0,0,1,.38-1.81A9.24,9.24,0,0,1,270.85,103.07Z"/><path class="cls-1" d="M264.59,164.73c0.32,1.09,1.43,1.78,2.17,2.65a10.08,10.08,0,0,1,1,1.62,8.71,8.71,0,0,0,1.05,1.57c0.82,0.83,1.83,1.25,2.32,2.25a28.92,28.92,0,0,1,1.35,3.12c0.43,1,.43,2.11.92,3.11a10,10,0,0,0,2.22,2.35,5.92,5.92,0,0,0,1.58.35,2.37,2.37,0,0,1,1.84,1.67,8.41,8.41,0,0,0,1.08,2.8,3.51,3.51,0,0,0,.63.47c1,0.53,1.91,1,2.83,1.56s2.26,0.62,3.15,1.31c0.45,0.32.71,0.89,1.14,1.25a5.31,5.31,0,0,1,1.19,1.25,5.47,5.47,0,0,0,1,1.48,8.34,8.34,0,0,0,1.57,1.15,12,12,0,0,0,1.82.24c0.58,0.09,1.16-.48,1.81-0.57a2.72,2.72,0,0,1,1.67.45,15.9,15.9,0,0,1,1.62.36c0.95,0.5,1.53,1.46,2.43,2.1a7,7,0,0,1,1.2,1l1.23,1.37c0.81,0.9,2,.79,3.15.85,0.56,0,1.08-.18,1.63-0.15s1.34,1.18,1.88,1.24a28.19,28.19,0,0,1,3.1.3c1,0.26,2.45-.08,3.36.54s1.29,1.81,2.22,2.39a7.18,7.18,0,0,0,3.26,1.33c1.11,0,2.09-1.09,3.19-1a9.07,9.07,0,0,1,1.74.11c0.52,0.12,1.07.35,1.58,0.5a30,30,0,0,1,3,1.25c1,0.39,2.11.52,3.1,0.92s1.45,1.57,2.38,2.22a8.17,8.17,0,0,0,3.21,1,15.93,15.93,0,0,0,3.36.85c1.1,0,2-.45,3.08-0.22a6.24,6.24,0,0,1,1.61.39c0.48,0.25.74,0.76,1.21,1,1,0.58,1.79.27,2.92,0.12a12.82,12.82,0,0,1,3.66.53,2.26,2.26,0,0,1,1.27.25c0.47,0.32,1.12.6,1.58,1,0.91,0.77,2.29,1.53,3.45,1.2s2.63-1.36,3.52-.45c0.85,1.12,1.51,1,2.52,1.32s1.87,1.09,2.95,1.13A6.88,6.88,0,0,0,374,218c0.62-.28.67-1,0.95-1.55,0.39-.73-0.13-1.43-0.58-2.16a3.52,3.52,0,0,0-2-1.87,12.67,12.67,0,0,0-3-.33c-1.06,0-2-.72-3.26,0-1.17.48-1.66-.69-2.57-1.44s-2.25-.45-3.39-0.13c-0.57.15-1.33,0.12-1.89,0.21a3.28,3.28,0,0,1-1.57-.06c-1-.3-1.86-1.3-2.79-1.95s-1.71-.34-2.81-0.27c-0.55,0-1.22,0-1.76,0s-1-.82-1.54-1c-1-.3-2.33-0.27-3.28-0.8a14.8,14.8,0,0,0-2.7-1.47,7,7,0,0,0-3-.38,12.09,12.09,0,0,1-3.28-.63c-1-.17-2.08-0.23-3.11-0.44a27.16,27.16,0,0,1-3-.81c-0.5-.17-1.19.08-1.68-0.12a8.44,8.44,0,0,1-1.54-.73c-0.92-.58-1.85-1.49-2.75-2.13s-1.61-1.5-2.68-1.58-2,.9-3.12.83a10.37,10.37,0,0,1-3.45-.9,31.71,31.71,0,0,1-2.79-1.8,13.49,13.49,0,0,1-1.06-1.15c-0.44-.33-0.62-0.88-1.05-1.21-0.86-.67-1.78-0.55-2.94-0.42-0.58.06-1.26,0-1.84,0.09s-1.28-.73-1.81-0.81a14.08,14.08,0,0,1-2.93-.71,8.41,8.41,0,0,1-1.25-.72,1.8,1.8,0,0,1-1.23-.73,5.72,5.72,0,0,1-.34-1.24l-2.09-1.76a5.47,5.47,0,0,1-1.15-.21,4.53,4.53,0,0,0-1.39-.58,3.47,3.47,0,0,1-1.38-.84c-0.44-.24-0.88-0.41-1.31-0.69-0.82-.61-2.08-0.87-2.78-1.67a15.15,15.15,0,0,1-1.94-2.51c-0.55-.88-0.5-1.91-1.11-2.67s-1.58-1.26-2.26-2-1-2-1.83-2.58-1.71-.91-2.51-1.54a15.4,15.4,0,0,1-1.9-2.47c-0.61-.82-1.79-1.51-2-2.59s-0.27-2.08-.49-3.1a7,7,0,0,0-1.05-2.54,15.18,15.18,0,0,0-2.14-2.39,6.1,6.1,0,0,1-1.32-1.1,4.83,4.83,0,0,1,0-1,2.32,2.32,0,0,1,0-1.27,0.2,0.2,0,0,1,.13-0.1,20.58,20.58,0,0,0,0-2.29l-0.06-.11a2.49,2.49,0,0,1-.17-1.65,12.92,12.92,0,0,0-2-4.83,1.93,1.93,0,0,1-.14-1.76,5.75,5.75,0,0,0,.68-1.8,20.41,20.41,0,0,1-.09-2.15c0-.3,0-0.6,0-0.89a7.85,7.85,0,0,0-2.27-4,1.69,1.69,0,0,1-.5-1.26c0-1.48.88-2.82,1.66-4l0.26-2c0.12-1,.78-2,0.76-3s-0.57-2-.59-3c0-.06,0-0.12,0-0.18-1.44-2.55-4.27-.94-6,2.3a3.43,3.43,0,0,1,0,.42,14.88,14.88,0,0,0-.3,3.1c0,0.78-.16,1.65-0.16,2.48a5.52,5.52,0,0,1,1.41,3.3,2.26,2.26,0,0,1-.26,1.3,7.58,7.58,0,0,0-1.44,5.52l0.13,0.6,0,0.13a6.5,6.5,0,0,0,1.49,2.68,2.32,2.32,0,0,1,.33,2.17,12.5,12.5,0,0,0-.59,3.4c0.22,0.38.45,0.76,0.66,1.18a9.41,9.41,0,0,1,.53,3.58,5,5,0,0,0,.24,1.79c0.13,0.25.55-.33,0.83-0.13s0.48,1.53.82,1.71,0.68-.12.83,0.11a3.24,3.24,0,0,1,.29.81,11.65,11.65,0,0,1,.53,2C265.34,162.58,264.27,163.64,264.59,164.73Z"/><path class="cls-1" d="M292.69,80.81a3.61,3.61,0,0,0,1.64-.5c0.87-.54,1.64-1.77.83-2.39a3.37,3.37,0,0,0-3.3,0c-1,.65-1.44,2-0.7,2.55A2.12,2.12,0,0,0,292.69,80.81Z"/><path class="cls-1" d="M385.22,216.58c-1.6-.59-3-0.67-4,0.25s-0.67,1.86.79,2.6c1.65,0.83,3.75,1.55,4.51,0C387,218.27,387.08,217.27,385.22,216.58Z"/><path class="cls-1" d="M285.95,79.38a7.33,7.33,0,0,0-2.37,1.73c-1.2,1.28-1,2.29.18,2.73s2.48,0,3.79-1c1.54-1.07,1.37-2,.59-3A1.77,1.77,0,0,0,285.95,79.38Z"/><path class="cls-1" d="M357.55,59.76a2.25,2.25,0,0,1-2.09-.72c-3.75-.58-7,0.65-10.52,1.81-1.17.36-2.18,0.72-3.21,0.95a3.11,3.11,0,0,1-1.34.46,10.78,10.78,0,0,0-3.11.9c-0.53.57-1,1.17-1.56,1.68-0.76.78-2.1,1.06-3,1.69s-1.6,1.65-2.54,2a57.19,57.19,0,0,0-5.25,6.9,1.83,1.83,0,0,1-.28,1c-1.16,2.19-.51,3.39.68,3.64a5.14,5.14,0,0,0,4.3-1.73,1.38,1.38,0,0,1,1.63-.46c0.56-.49,1.12-1,1.6-1.49,0.72-.78.51-1.92,1-3A3.59,3.59,0,0,1,335.38,72a9.85,9.85,0,0,1,3.48-2.74,15.65,15.65,0,0,1,2.12-.77l1.14-.35,1.16-.31a12.5,12.5,0,0,0,4.11-1.73,6.65,6.65,0,0,1,3-1.38c0.87-.16,1.79-0.14,3.41-0.27s4.28,0.38,5.7-.39a3.62,3.62,0,0,0,1.75-2.37C361.37,60.7,360.51,59.65,357.55,59.76Z"/><path class="cls-1" d="M389.66,203.5a17.1,17.1,0,0,1,4.15.77,2.91,2.91,0,0,1,1.44.33c0.54,0.35,1.28.65,1.81,1.06,1.05,0.81,2.65,1.63,4,1.34s2.94-1.32,4-.39c1,1.15,1.76,1,2.93,1.34s2.19,1.08,3.42,1.13a8.39,8.39,0,0,0,3-.29c0.68-.29.68-1.05,1-1.58,0.39-.74-0.25-1.43-0.8-2.14a4.11,4.11,0,0,0-2.32-1.83,16,16,0,0,0-3.4-.3c-1.2,0-2.32-.72-3.65-0.05-1.3.46-1.89-.72-2.93-1.48s-2.52-.53-3.8-0.25c-0.64.13-1.49,0.07-2.12,0.14a4.16,4.16,0,0,1-1.77-.16c-1.14-.36-2.09-1.42-3.12-2.12s-1.9-.48-3.13-0.49c-0.61,0-1.36-.14-2-0.19s-1.14-.93-1.69-1.15c-1.11-.4-2.59-0.5-3.63-1.13a19.29,19.29,0,0,0-2.93-1.8,9.46,9.46,0,0,0-3.32-.77,15.27,15.27,0,0,1-3.59-1.1c-1.14-.31-2.28-0.57-3.4-0.95a28.85,28.85,0,0,1-3.26-1.33c-0.53-.26-1.32-0.14-1.84-0.43a10.71,10.71,0,0,1-1.62-1c-1-.75-1.87-1.87-2.77-2.7s-1.58-1.83-2.74-2.15-2.33.44-3.51,0.12a11.85,11.85,0,0,1-3.63-1.74c-1-.7-1.85-1.71-2.75-2.51a16.48,16.48,0,0,1-1-1.44c-0.42-.44-0.51-1-0.92-1.5a4.61,4.61,0,0,0-3.08-1.25c-0.63-.11-1.36-0.32-2-0.45s-1.22-1.12-1.78-1.36a16.91,16.91,0,0,1-3-1.64,9.52,9.52,0,0,1-1.18-1.12c-0.43-.39-1-0.46-1.16-1.14a6.41,6.41,0,0,1-.09-1.36l-1.83-2.48a7.59,7.59,0,0,1-1.15-.62,6.38,6.38,0,0,0-1.32-1.07,4.39,4.39,0,0,1-1.25-1.34,16.05,16.05,0,0,1-1.18-1.17,12,12,0,0,0-1.3-1.29,6,6,0,0,1-1.14-1.42,16.61,16.61,0,0,1-1.27-3.31c-0.32-1.11.09-2.15-.32-3.16s-1.15-1.93-1.56-3a16.14,16.14,0,0,1-.38-1.74,5.27,5.27,0,0,0-.5-1.7c-0.5-1-1.33-1.7-1.83-2.72a16.93,16.93,0,0,1-.89-3.43c-0.3-1.13-1.08-2.39-.91-3.6s0.53-2.3.71-3.47a8.89,8.89,0,0,0,0-3.16,18.26,18.26,0,0,0-1.1-3.48,8.63,8.63,0,0,1-.84-1.72,6.15,6.15,0,0,1,.42-1.09,3.26,3.26,0,0,1,.43-1.38,0.19,0.19,0,0,1,.15-0.05,22.52,22.52,0,0,0,.8-2.5l0-.15a3.26,3.26,0,0,1,.4-1.87,16.14,16.14,0,0,0-.37-6,2.57,2.57,0,0,1,.43-2,6.68,6.68,0,0,0,1.22-1.76,22,22,0,0,1,.6-2.39l0.29-1a9.64,9.64,0,0,0-.86-5,2,2,0,0,1-.06-1.52,8.35,8.35,0,0,1,3-3.79l1-2c0.51-1,1.48-1.88,1.89-2.93s0.26-2.22.68-3.28l0.09-.17c-0.13-1.56-1-2.22-2.24-2.11A7.78,7.78,0,0,0,316.84,86a4.53,4.53,0,0,1-.21.44,17.12,17.12,0,0,0-1.52,3.25c-0.29.85-.77,1.74-1.08,2.64a7,7,0,0,1,.18,4,2.87,2.87,0,0,1-.69,1.33,9.19,9.19,0,0,0-3.15,5.56l-0.06.69,0,0.15a7.58,7.58,0,0,0,.59,3.35,3,3,0,0,1-.37,2.44,14.58,14.58,0,0,0-1.63,3.44c0.08,0.48.18,1,.24,1.47a10.75,10.75,0,0,1-.68,3.95,6.66,6.66,0,0,0-.39,2c0,0.31.63-.14,0.83,0.18s-0.07,1.78.17,2.09,0.68,0.14.73,0.44a4.05,4.05,0,0,1,0,1,11.73,11.73,0,0,1-.21,2.26c-0.47,1.22-1.8,1.87-1.94,3.13s0.66,2.44,1,3.67,0.28,3,.68,4.2a12.53,12.53,0,0,1,1.34,3.37c0.11,1.23.13,2.55,0.14,3.84s-0.35,2.37-.21,3.64a11.71,11.71,0,0,0,1.35,3.44,6,6,0,0,0,1.41,1.07,3,3,0,0,1,1.3,2.53,10.17,10.17,0,0,0,.29,3.37,4.6,4.6,0,0,0,.51.75c0.43,0.49.85,0.93,1.26,1.38l1.21,1.38a8.93,8.93,0,0,0,1.49,1.27,5.77,5.77,0,0,1,1.43,1.27c0.37,0.51.53,1.17,0.89,1.7a6.84,6.84,0,0,1,1,1.69,6.24,6.24,0,0,0,.73,1.85,9.8,9.8,0,0,0,1.4,1.71,13.3,13.3,0,0,0,1.86.87c0.6,0.28,1.33-.1,2,0a3.51,3.51,0,0,1,1.67,1c0.49,0.37,1.2.48,1.65,0.89a34.47,34.47,0,0,1,2.19,2.89,8.3,8.3,0,0,1,1.1,1.37l1.08,1.75c0.72,1.15,2.06,1.4,3.28,1.78,0.61,0.19,1.21.13,1.81,0.31s1.27,1.57,1.87,1.77c1.17,0.42,2.27.59,3.37,1.11s2.7,0.54,3.62,1.37,1.19,2.12,2.13,2.94a9.26,9.26,0,0,0,3.47,2.05c1.24,0.26,2.44-.63,3.65-0.38a11.58,11.58,0,0,1,1.92.44c0.56,0.22,1.16.56,1.71,0.8,1.11,0.48,2.18,1.22,3.26,1.79s2.31,0.9,3.39,1.44,1.53,1.8,2.53,2.59a9.91,9.91,0,0,0,3.56,1.46,18.85,18.85,0,0,0,3.76,1.27c1.25,0.12,2.33-.24,3.49.11A8.93,8.93,0,0,1,385,202c0.54,0.29.82,0.83,1.36,1.16C387.43,203.8,388.39,203.55,389.66,203.5Z"/><path class="cls-1" d="M374.92,67.47c-1.23-.48-2.65,0-2.57.94a2.9,2.9,0,0,0,.86,1.51,5.54,5.54,0,0,0,1.58,1.14c1,0.44,2.58.37,2.5-.71a3.56,3.56,0,0,0-.76-1.64A4.2,4.2,0,0,0,374.92,67.47Z"/><path class="cls-1" d="M365.5,65.88a8.81,8.81,0,0,0,2.28.92c2,0.6,2.66-.09,2.91-1.37,0.36-1.78-2.3-2.75-4.49-2.93-2-.16-2.67.61-2.11,1.85A3.22,3.22,0,0,0,365.5,65.88Z"/><path class="cls-1" d="M187.67,49.32a4.55,4.55,0,0,0,2.57.17,11.5,11.5,0,0,0,3.66-1.16c1.16-.58,2-0.56,2.29-0.25,1-.42,2.08-0.9,3-1.38,1.43-.73,1.79-2.13,3.1-3.2A8,8,0,0,1,205,42.14a23,23,0,0,1,5.95-2.74c0.5-.15,1-0.3,1.56-0.44l1.68-.37c1.15-.25,2.33-0.5,3.49-0.79A22.29,22.29,0,0,0,224,35.55a17.46,17.46,0,0,1,4.48-2c0.64-.17,1.29-0.32,2.07-0.49s1.72-.35,2.89-0.63c2.48-.65,6.35-1.07,8.05-2.36,0.81-.63,1.64-2,1.35-2.95s-1.72-1.49-5.41-.4a3.61,3.61,0,0,1-2.84-.05c-4.84.48-8.83,2.27-13.47,3.77a35.84,35.84,0,0,1-4.27,1.12,5.52,5.52,0,0,1-1.81.5,24.43,24.43,0,0,0-4.16.84c-0.83.53-1.62,1.16-2.47,1.66-1.23.75-3,.92-4.33,1.43-1.14.47-2.66,1.56-4,1.81-1.77.94-3.45,2.11-5.14,3.15s-3.27,2.17-4.81,3.19a3,3,0,0,1-.92,1A5.57,5.57,0,0,0,187,47.81,1.17,1.17,0,0,0,187.67,49.32Z"/><path class="cls-1" d="M266.14,26.46c1.51-.59,2.68-1.85,1.47-2.44a8.1,8.1,0,0,0-4.92,0c-1.58.57-2.7,1.86-1.72,2.51S264.67,27,266.14,26.46Z"/><path class="cls-1" d="M46.74,290c-2.07,1.93-4.43,4.37-3.61,6,0.58,1.19,1.48,1.7,3.7-.55,1.9-2,3.1-3.87,3-5.65S48.57,288.27,46.74,290Z"/><path class="cls-1" d="M254.24,28.31c3-.78,3.1-1.75,2.38-2.89-1-1.62-4.45-.76-7.18.17-2.42.85-3,1.91-1.56,2.69S251.63,29,254.24,28.31Z"/><path class="cls-1" d="M94.79,229.82a3.55,3.55,0,0,0,1.64-3.34,1.11,1.11,0,0,1,.69-1.22,8.29,8.29,0,0,0-.21-1.64c-0.18-.78-1.31-1.06-1.9-1.79a2.07,2.07,0,0,1-.41-1.45,7.25,7.25,0,0,1-.82-3.17c0.06-2.09.89-4.91-.33-6.78-1.34-2.13-.79-2.48-1.06-4.85-0.1-1.26.16-3.19-.82-4.12a4.2,4.2,0,0,0-2.65-.9,22.89,22.89,0,0,0,1.14-2.07,2,2,0,0,0,.76-0.28c1.12-.68,1.28-1.76,1-3.1a1.64,1.64,0,0,0-1.61-1.54,4.71,4.71,0,0,1,0-1.35c0-.16,0-0.32.08-0.49a1.17,1.17,0,0,0,.74-0.08,2.07,2.07,0,0,0,.6-2.52,2.32,2.32,0,0,0-.51-0.66c0.2-.62.42-1.22,0.63-1.75a52,52,0,0,1,2.42-4.64c0.4-.75,1-1.12,1.44-1.85s1.05-1.12,1.49-1.85a9.19,9.19,0,0,0,1.08-4.59c0.06-.87.21-1.93,0.29-2.8s1.08-2.11,1.29-2.93a42.43,42.43,0,0,1,1.43-4.62,17,17,0,0,1,1.08-2.07c0.37-.75.38-1.47,1.1-2.06a8.53,8.53,0,0,1,1.46-.87q1.26-1.84,2.48-3.73a13.2,13.2,0,0,1,.5-1.81,11,11,0,0,0,1-2.31,9.63,9.63,0,0,1,1.24-2.4c0.36-.76.64-1.48,1-2.22a47.1,47.1,0,0,1,2.33-4.83,52.17,52.17,0,0,1,3.19-4.13c1.11-1.29,2.39-1.83,3.34-3.2s1.61-3,2.48-4.43,2.41-2.77,3.16-4.32,1-2.93,1.69-4.42a45.86,45.86,0,0,1,2.78-4.38c0.89-1.46,1.54-3.42,2.79-4.63s2.52-2.2,3.71-3.42a17.51,17.51,0,0,0,2.82-3.66,31.13,31.13,0,0,0,2.14-4.71,15.39,15.39,0,0,1,.76-2.49,11.55,11.55,0,0,1,1.25-1,6.43,6.43,0,0,1,1.5-1.39,0.16,0.16,0,0,1,.17,0c1-.85,1.88-1.69,2.71-2.56l0.1-.19a6.65,6.65,0,0,1,1.84-2,30.67,30.67,0,0,0,4.37-7.42,5.18,5.18,0,0,1,1.9-2.19A11.35,11.35,0,0,0,158.47,79c0.75-.92,1.58-1.82,2.37-2.64l1-1.07a17,17,0,0,0,3-6.4A4,4,0,0,1,165.87,67a15.71,15.71,0,0,1,5.75-3.42c0.83-.68,1.65-1.39,2.46-2,1.26-1.06,3-1.67,4.17-2.78A12.8,12.8,0,0,0,179.78,57a11,11,0,0,1,1.62-1.75l0.22-.17c1-1.82.49-2.79-.94-3a11.79,11.79,0,0,0-6.28,1.39c-0.17.15-.35,0.3-0.53,0.43A30.16,30.16,0,0,0,170,57c-0.9.86-2,1.73-2.95,2.64a12,12,0,0,1-2.67,4.7,5.83,5.83,0,0,1-1.62,1.29,16.58,16.58,0,0,0-7,5.22l-0.55.78-0.13.16a13.46,13.46,0,0,0-1.89,4.17,5.58,5.58,0,0,1-2.13,2.7,27.82,27.82,0,0,0-4,3.24c-0.28.59-.56,1.19-0.89,1.82a19.46,19.46,0,0,1-3.58,4.21,13.28,13.28,0,0,0-1.83,2c-0.21.37,0.64,0.18,0.56,0.65s-1.44,2-1.49,2.47,0.46,0.53.25,0.91a7.75,7.75,0,0,1-.79,1.08,21.59,21.59,0,0,1-2,2.42c-1.37,1.09-3,1-4.1,2.26s-1.5,3-2.28,4.57-2.36,3.32-3.12,4.86-1,3-2.09,4.41-2.27,2.64-3.44,3.89-2.44,2-3.54,3.21a24.78,24.78,0,0,0-2.53,4.19,10.44,10.44,0,0,0-.3,2.2,5.2,5.2,0,0,1-1.89,3.32,20.53,20.53,0,0,0-3.27,2.87,8,8,0,0,0-.54,1.06c-0.6,1.59-1.2,2.95-1.91,4.47s-0.91,3.3-1.77,4.83c-0.43.74-1.11,1.31-1.57,2a11.71,11.71,0,0,1-1.56,2.09,12.36,12.36,0,0,0-1.81,1.88,17.41,17.41,0,0,0-1.54,2.54c-0.3.81-.37,1.81-0.59,2.65s0.3,1.54.28,2.48a6.31,6.31,0,0,1-.84,2.56c-0.33.79-.38,1.71-0.74,2.48-0.73,1.54-1.9,2.61-2.81,4.09a18.51,18.51,0,0,1-1.35,2l-1.71,2.13c-1.12,1.4-1.28,3.22-1.58,4.93-0.14.86,0,1.61-.14,2.47s-1.52,2.29-1.7,3.13c-0.37,1.68-.43,3.19-0.87,4.84s-0.36,3.76-1.14,5.28S84.79,193.5,84,195a17.21,17.21,0,0,0-1.9,5.28c-0.18,1.72.83,3,.6,4.73a21.85,21.85,0,0,1-.37,2.71c-0.2.82-.53,1.72-0.76,2.53-0.46,1.64-1.23,3.28-1.81,4.88s-0.89,3.36-1.48,4.94-1.91,2.47-2.75,4a22.32,22.32,0,0,0-1.69,5,44,44,0,0,0-1.61,5.24c-0.27,1.68,0,3.09-.53,4.7a14.58,14.58,0,0,1-.82,2.5c-0.4.75-1,1.15-1.44,1.89-0.88,1.47-.8,2.73-1,4.46s-1.25,4-1.79,5.54a5.54,5.54,0,0,1-.7,1.93,27.33,27.33,0,0,1-1.64,2.32,10,10,0,0,0-2.65,5.06c-0.22,1.72.14,4.05-1.22,5.26a5.21,5.21,0,0,0-1.54,1.64c-0.37.55-.65,1.14-1.11,1.84-0.86,1.43-2.13,2.49-2.76,4a18.85,18.85,0,0,0-1.37,3.8c-0.12.95,0.6,1.21,0.93,1.76,0.46,0.76,1.5.19,2.52-.29a6.23,6.23,0,0,0,3.12-2.49,33.65,33.65,0,0,0,2.1-4.5c0.7-1.57,1.88-3,1.78-4.94,0.09-1.85,1.53-2.44,2.77-3.76s1.45-3.46,1.61-5.25c0.08-.89.46-2.05,0.57-2.93a8.42,8.42,0,0,1,.64-2.44c0.67-1.56,2-2.87,3-4.32s0.89-2.69,1.15-4.4c0.13-.86.42-1.91,0.58-2.75s1.14-1.68,1.45-2.47a43.62,43.62,0,0,1,1.67-5.2,34.43,34.43,0,0,0,2.14-4.4,16.62,16.62,0,0,0,1-4.78A31.35,31.35,0,0,1,82.06,221c0.37-1.65.6-3.29,1-4.93s0.83-3.21,1.35-4.83c0.25-.81.1-1.84,0.38-2.64a21.31,21.31,0,0,1,1-2.53c0.49-1,1.13-2,1.73-3,0,0.07,0,.14,0,0.21a1.19,1.19,0,0,1-.58,1.41c-0.47,2.45.54,4.55,0.84,7a9,9,0,0,1,.11,2.2,1.36,1.36,0,0,1,0,.94,6.58,6.58,0,0,0-.31,2.15c0.29,0.45.61,0.89,0.86,1.34,0.36,0.66,0,1.57.1,2.27s0.59,1.44.39,2.14c0.7,1.9,1.61,3.78,2.21,5.52a1.11,1.11,0,0,1,.53.55A2.09,2.09,0,0,0,94.79,229.82Z"/><path class="cls-1" d="M170.61,332.19a7.94,7.94,0,0,0-2.19-1c-0.79-.29-1.3-1.12-2.5-0.75-1.09.18-1-1-1.41-1.93s-1.54-.93-2.55-0.92a12.07,12.07,0,0,1-1.54-.26,2.16,2.16,0,0,1-1.17-.46c-0.65-.53-0.9-1.65-1.34-2.46s-1.18-.71-2-0.94c-0.43-.12-0.9-0.37-1.31-0.51s-0.44-1-.75-1.29c-0.64-.52-1.67-0.84-2.16-1.56a9.33,9.33,0,0,0-1.38-2,4.43,4.43,0,0,0-2.11-1.16,6.57,6.57,0,0,1-2.19-1.48c-0.69-.46-1.46-0.8-2.14-1.28a12.78,12.78,0,0,1-1.89-1.58c-0.29-.29-0.93-0.29-1.21-0.61a5.4,5.4,0,0,1-.8-1.09c-0.41-.78-0.68-1.83-1-2.64s-0.44-1.78-1.19-2.19-2,.13-2.77-0.28a6.1,6.1,0,0,1-2.12-1.88,20.51,20.51,0,0,1-1.14-2.41,10.73,10.73,0,0,1-.19-1.29c-0.16-.41,0-0.93-0.14-1.35-0.28-.85-1-1.06-2-1.35-0.46-.15-1-0.39-1.44-0.55s-0.6-1-1-1.26a10.86,10.86,0,0,1-1.86-1.57,6.26,6.26,0,0,1-.61-1,1.22,1.22,0,0,1-.61-1,5.86,5.86,0,0,1,.33-1.12c-0.26-.71-0.53-1.42-0.83-2.11a4.73,4.73,0,0,1-.85-0.51,2.83,2.83,0,0,0-.9-0.86,2.69,2.69,0,0,1-.83-1.05,9.64,9.64,0,0,1-.81-0.91c-0.48-.69-1.43-1.2-1.77-2a12.87,12.87,0,0,1-.87-2.47c-0.19-.86.19-1.74-0.16-2.48a15.43,15.43,0,0,0-1.55-2c-0.39-.74-0.46-1.79-1.07-2.41s-1.43-.88-2-1.46a10,10,0,0,1-1.38-2.16c-0.46-.71-1.46-1.29-1.55-2.19s-0.05-1.76-.17-2.62a4.18,4.18,0,0,0-.83-2.1,8.93,8.93,0,0,0-2-1.81,5,5,0,0,1-1.28-.76,3.64,3.64,0,0,1,.05-0.87,1.85,1.85,0,0,1,0-1.06,0.23,0.23,0,0,1,.12-0.1,11.71,11.71,0,0,0-.09-1.91l-0.07-.08a1.71,1.71,0,0,1-.28-1.33,7.61,7.61,0,0,0-2.42-3.57,1.36,1.36,0,0,1-.37-1.39,4.51,4.51,0,0,0,.42-1.61,13.65,13.65,0,0,1-.42-1.71l-0.16-.71a5.82,5.82,0,0,0-3-2.56,1.27,1.27,0,0,1-.76-0.84c-0.35-1.13.17-2.42,0.62-3.57l-0.27-1.58c-0.13-.82.17-1.79-0.13-2.56s-1.16-1.28-1.48-2l0-.14c-2.15-1.41-4.3.77-4.92,3.67a2.14,2.14,0,0,1,.09.32,11.22,11.22,0,0,0,.56,2.38c0.21,0.57.27,1.27,0.48,1.89a3.78,3.78,0,0,1,2.14,2.05,1.48,1.48,0,0,1,0,1.06,5.3,5.3,0,0,0-.34,4.58l0.23,0.42,0,0.1a4.66,4.66,0,0,0,1.82,1.7,1.52,1.52,0,0,1,.6,1.61,9.37,9.37,0,0,0-.22,2.78c0.24,0.25.49,0.51,0.72,0.79a5.53,5.53,0,0,1,.71,2.72,3.61,3.61,0,0,0,.28,1.37c0.13,0.18.53-.35,0.81-0.24s0.5,1.14.81,1.24a2.53,2.53,0,0,1,.79,0,2,2,0,0,1,.27.62,6.71,6.71,0,0,1,.47,1.52c-0.06,1-1.11,1.92-.89,2.77s1.24,1.29,1.83,2,0.94,1.83,1.56,2.48,1.52,1,1.83,1.78a18.38,18.38,0,0,1,.68,2.57c0.17,0.85-.07,1.75.14,2.59a6.32,6.32,0,0,0,1.39,2,5.07,5.07,0,0,0,1.33.39,1.44,1.44,0,0,1,1.16,1.54,7.47,7.47,0,0,0,0,2.45,2.07,2.07,0,0,0,.38.47,14.61,14.61,0,0,1,1.88,1.67c0.61,0.65,1.66.9,2.12,1.64,0.23,0.36.18,0.9,0.39,1.28a2.83,2.83,0,0,1,.44,1.27,4.22,4.22,0,0,0,.14,1.44,5.64,5.64,0,0,0,.69,1.33,9,9,0,0,0,1.29.69c0.4,0.24,1.15-.07,1.7,0a1.74,1.74,0,0,1,1.08.86,8.7,8.7,0,0,1,1.06.8,13.78,13.78,0,0,1,.73,2.52,4.81,4.81,0,0,1,.39,1.21l0.21,1.53c0.14,1,1.11,1.34,1.91,1.78,0.4,0.22.9,0.23,1.3,0.45s0.41,1.42.78,1.67a19.43,19.43,0,0,1,2.19,1.31c0.65,0.57,1.87.78,2.27,1.57s0.08,1.93.49,2.73a4.64,4.64,0,0,0,1.81,2.2c0.86,0.36,2.14-.27,3,0.11a6.13,6.13,0,0,1,1.27.63c0.34,0.26.65,0.63,1,.92,0.63,0.58,1.14,1.36,1.71,2s1.38,1.07,1.94,1.72,0.38,1.82.81,2.64a5.49,5.49,0,0,0,2,1.81,10.18,10.18,0,0,0,2.21,1.71c0.86,0.3,1.78.15,2.49,0.64a3.78,3.78,0,0,1,1.08.79c0.26,0.36.25,0.89,0.49,1.28,0.48,0.79,1.29.71,2.22,0.86a8.4,8.4,0,0,1,2.62,1.43,1.47,1.47,0,0,1,.88.55c0.23,0.42.64,0.82,0.85,1.29,0.42,0.93,1.21,1.95,2.24,1.93s2.53-.58,2.91.44c0.26,1.22.83,1.23,1.49,1.79s1.07,1.45,1.9,1.74a4.53,4.53,0,0,0,2.15.37,3.15,3.15,0,0,0,1.27-1.25,2.43,2.43,0,0,0,.29-2.13A2.9,2.9,0,0,0,170.61,332.19Z"/><path class="cls-1" d="M179.14,338.7c-1.06-.88-2.09-1.24-3.21-0.56s-1.13,1.61-.21,2.6,2.47,2.24,3.54.89C180,340.66,180.36,339.71,179.14,338.7Z"/><path class="cls-1" d="M178,74.89c-0.71.77-1.46,1.49-2.12,2.28l-2,2.33a12.54,12.54,0,0,1-1.6,2.37,24,24,0,0,0-2.58,3.74,12.41,12.41,0,0,0-1.15,2.49c-0.36,1.24,0,1.65,1,1.39a13,13,0,0,0,4.07-2.64,66.79,66.79,0,0,0,6.1-5.6c2-2,3.46-2.71,4-2.65,0.91-.82,1.83-1.66,2.72-2.5s1.84-1.57,2.69-2.32a20.09,20.09,0,0,0,3.08-3.43,35.92,35.92,0,0,1,3.06-3.53,25.64,25.64,0,0,1,5.22-4l2.74-2.09a32.43,32.43,0,0,1,2.9-2c2-1.25,4.12-2.53,6.38-3.69,2.06-1,4.31-2,6.63-3l7.27-2.82c2.45-.91,4.93-1.7,7.24-2.63,1.15-.48,2.31-0.84,3.41-1.26s2.16-.84,3.15-1.28a44.28,44.28,0,0,1,5.66-2.15c1.59-.51,3-0.89,4.35-1.24s2.85-.51,4.58-0.81,3.75-.7,6.37-1l4.58-.55c1.63-.2,3.35-0.26,5-0.42s3.28-.22,4.75-0.39a26.28,26.28,0,0,0,3.81-.55c2-.46,4.3-1.58,4.06-2.59s-3.14-2-11.57-1.26a16.7,16.7,0,0,1-6.16-.18c-2.66.18-5.25,0.44-7.78,0.74s-5,1-7.44,1.47c-4.89,1.22-9.73,2.63-14.81,4.37l-2.45.77c-0.8.26-1.56,0.56-2.32,0.83-1.51.54-3,1-4.41,1.5-0.56.26-1.18,0.48-1.82,0.74s-1.31.52-2,.74a59.31,59.31,0,0,0-8.61,3.4c-1.76,1.2-3.53,2.32-5.3,3.54a38.79,38.79,0,0,1-4.31,2.51L202,54.69c-0.73.42-1.42,0.85-2.08,1.28-2.25,1.47-5.38,4-7.81,5.54l-2.53,2.1-1.26,1.05c-0.41.36-.8,0.75-1.21,1.12l-4.75,4.48C180.88,71.79,179.44,73.37,178,74.89Z"/><path class="cls-1" d="M556.91,267a25.38,25.38,0,0,0-7.52,3.1c-3.21,1.82-5.8,3.86-8.89,5.88s-6.61,3.65-9.32,6.31c-2.84,2.45-5.53,2.81-9,4.16s-7,3.93-10,6.13c-1.51,1.08-3.79,2.41-5.34,3.44-0.77.51-1.53,1-2.31,1.46s-1.58.85-2.43,1.23a84.05,84.05,0,0,1-10.56,3.58,25.62,25.62,0,0,0-4.5,1.92c-0.67.36-1.34,0.74-2,1.15l-2.27,1.21c-1.64.85-3.78,1.82-5.44,2.63s-4.16,1-5.89,1.63-3.61,1.4-5.5,2.16a53.25,53.25,0,0,1-5.62,1.8l-5.1,1.21c-1.67.33-3.33,0.7-5.09,1.18s-3.41,1-5,1.49-3.26,1.06-5,1.67a93.57,93.57,0,0,1-11.31,2.79c-3.56.82-7,1.67-10.63,2.32S411,326.62,407.28,327c-1.83.19-3.84,0.84-5.68,1s-4.06.25-5.91,0.21c-3.7,0-7.8-.44-11.48-0.7s-7-.84-10.65-0.65-5.78,1.37-9.47,1.48c-1.85.06-4,0-6.24-.08s-4.38-.33-6.21-0.54c-3.67-.37-7.55-1.35-11.18-2-1.82-.31-2.94-1-4.73-1.39s-3-1.06-4.76-1.49a42.82,42.82,0,0,0-10.21-1.15l-0.29,0c1.18-.11,2.42-0.31,3.56-0.51,3.2-.6,4.08-1.6,2.39-2.52-1.84-1-4.69-1.09-8.12-.66-4,.47-4.19,1.44-3.42,2.64a1.9,1.9,0,0,0,.78.66l-0.87-.07a20.41,20.41,0,0,1-3.44-.71l-1.6-.47a0.62,0.62,0,0,0-.28-0.93c-1.12-.71-4.66-0.87-6.61-0.44h-0.12c-1.69-.34-3.36-0.75-5.15-1.2s-3.13-.94-4.89-1.49-3.21-.69-4.85-1.62a28.24,28.24,0,0,1-2.68-1.82l-9.07-3.66c-1.3-.36-2.65-0.6-3.92-1a52.42,52.42,0,0,0-5.19-1.7,49.94,49.94,0,0,1-5.51-2.19c-1.72-.66-3.33-1.17-5-1.93-3.43-1.52-7.52-2.72-10.83-4.55-1.58-.85-3.3-1.76-5-2.71s-3.35-2-4.86-3c-3.14-1.91-4.91-3.87-8.06-5.72-0.78-.47-1.59-0.92-2.41-1.35l-2.43-1.34c-1.63-.89-3.27-1.76-4.85-2.69-3.16-2-6.45-4.64-9.65-6.55-3-1.81-5.79-3-8.79-4.93a106.48,106.48,0,0,1-9-6.83L186,258.81a33.24,33.24,0,0,1-4.29-4c-1.21-1.38-2.35-2.73-3.41-4.14l-1.62-2.09L175,246.48,172,242.59c-1-1.2-2-2.43-3.16-3.8l-7.1-8.29c-1.11-1.44-2.42-2.61-3.41-4.15a24.86,24.86,0,0,1-1.32-3.14,28.52,28.52,0,0,1-1.55-4.06,0.18,0.18,0,0,1,.06-0.23L154.8,217l-0.35-.93-0.29-.95q-0.57-1.88-1.17-3.69l-0.19-.41a19.72,19.72,0,0,1-1.09-2.72c-0.25-.95-0.44-1.91-0.63-2.87-0.43-1.43-.89-2.85-1.37-4.26s-0.81-2.88-1.27-4.33-0.95-2.91-1.39-4.41-0.85-3-1.32-4.62a19.78,19.78,0,0,1-.67-3.22,16.47,16.47,0,0,1-.05-3c0.11-.93.19-1.91,0.23-2.92s0-2.06.12-3.14c-0.09-2.58-.2-5.21-0.13-7.68l0.15-3.18c0-1.44-.1-2.86-0.18-4.24s0-2.71-.1-4-0.17-2.48-.29-3.59-0.17-2.13-.31-3a17.49,17.49,0,0,1,.19-4.53,48.59,48.59,0,0,1,4.8-13.47l1.06-3.37,1.24-3.24c0.67-1.68,1.36-3.39,2.21-5a54.6,54.6,0,0,0,2.37-4.94c0.61-1.68,1.27-3.22,1.86-4.8a49.58,49.58,0,0,1,2-4.78l0.31-.54c1.36-4,.6-4.79-1.44-3.41s-5.21,5-8.39,10c-0.2.46-.39,0.93-0.59,1.36-0.8,1.72-1.54,3.31-2.25,4.92s-1.21,3.29-1.83,5.09c-0.42,1.29-1,2.62-1.4,4l-1.25,4.21c0,0.78-.07,1.61-0.14,2.47l-0.12,1.33L143,136.54a45,45,0,0,1-.88,6.2,34.27,34.27,0,0,1-1,4.39c-0.48,1.25-1,2.61-1.4,4s-0.69,3-1,4.55-0.56,3.22-.72,4.88-0.16,3.36-.16,5.06c0,0.69,0,1.39,0,2.1,0,0.15,0,.3,0,0.46a48.93,48.93,0,0,0,.59,5,37.58,37.58,0,0,0,1,4.72,26.32,26.32,0,0,1,.83,7.56c0,1.83.12,3.67,0.24,5.54l0.22,2.81c0.09,0.94.28,1.87,0.43,2.81,0.47,1.36,1,2.73,1.44,4.22,0.53,1.83,1.26,3.84,1.8,5.91s1,4.17,1.68,6,1.23,4,2,5.79c0.4,0.87.36-.74,0.93,0s2.43,5,3.07,5.7,0.77,0,1.23.83,1,1.75,1.46,2.59c0.9,1.66,2.57,4.4,3.4,6.11,1.67,3.41,1.67,5.75,3.84,8.94s5.12,5.56,7.86,8.2,6.26,6.6,9.18,9,5.66,3.94,8.52,6.46l4.27,3.77c1.42,1.28,2.87,2.54,4.29,3.76,2.76,2.39,4.8,4.62,7.69,6.86a88,88,0,0,0,9.13,5.71,39.81,39.81,0,0,0,4.26,1.47,26.72,26.72,0,0,1,7.31,4.06,66.31,66.31,0,0,0,7.4,5.49c0.8,0.41,1.59.8,2.34,1.13l9.73,4.12c3.5,1.58,7,2.21,10.44,3.81,1.69,0.8,3.27,1.74,5,2.51a48.06,48.06,0,0,1,5.07,2.49,53.6,53.6,0,0,0,4.86,2.6,62.37,62.37,0,0,0,6,2.4c1.81,0.52,3.83.81,5.65,1.24s2.9-.08,4.79.12a29.21,29.21,0,0,1,5.67,1.4c1.8,0.49,3.72.63,5.5,1.17s3.4,1.18,5,1.78,3.26,1.23,5,1.79,3.14,1,4.92,1.62l5.41,2A23.41,23.41,0,0,0,323,329c1.88,0.23,3.78.35,5.65,0.52s3.36,0,5.23.07a21.8,21.8,0,0,1,3.78.81,21.81,21.81,0,0,0,3.79.76c3.75,0.2,6.94.2,10.67,0.36,1.87,0.1,3.89.07,5.91,0.05a42.83,42.83,0,0,1,5.89.2c3.7,0.46,6.28,1.55,10,1.88a66.8,66.8,0,0,0,12.37.17c3.75-.44,5.79-1.89,9.48-2.4,1.85-.27,4.05-0.66,5.9-0.87s3.95-.35,5.79-0.57c3.72-.44,7.67-0.68,11.38-1.16s7.54-1.36,11.2-2,6.54-.23,10.27-0.73a49.72,49.72,0,0,0,5.8-1.22c2-.53,3.88-1.17,5.68-1.72s3.85-1,5.88-1.65,4-1.3,5.77-2c3.49-1.39,5.9-3,9.39-4.37,1.73-.7,3.69-1.46,5.45-2.09s3.13-.68,4.92-1.23c3.61-1.07,5.78-2.63,9-4.52s8.24-4.1,11.57-5.78a37.1,37.1,0,0,1,4.05-2.07c1.75-.66,4-1.67,5.77-2.28a45.15,45.15,0,0,0,11.4-5.69c3-2.33,6.05-5.62,9.61-6.89s5.35-2.48,8.62-4.27,6.45-3.2,9.52-5.32a76.33,76.33,0,0,0,7.09-5.44c1.42-1.38.76-1.84,1-2.67C561.16,265.72,559,266.46,556.91,267Z"/><path class="cls-1" d="M589.35,245.38c-5,3.14-8.94,6-10.84,8.67-1.75,2.44.08,2.31,4.86-.42,5.41-3.06,11.82-7.16,12.31-9.56C596,242.36,595.15,241.76,589.35,245.38Z"/><path class="cls-1" d="M307.08,39.81a36.29,36.29,0,0,0,4,.42,6.47,6.47,0,0,0,2.08-.1c0.87-.25.79-0.84,0.3-1.57-1.34-2.12-9-3.39-15.32-3.59-5.57-.17-7.22.7-4.5,1.93C296.54,38.33,301.29,39,307.08,39.81Z"/><path class="cls-1" d="M399.76,305.35c-1.64.4-2.63,0.18-2.92-.18-1.44.25-2.91,0.58-4.22,0.92-2,.54-3,1.81-5,2.71a13.39,13.39,0,0,1-3.76,1,42.58,42.58,0,0,1-8.26,1.9c-2.66.33-5.82,0.42-8.91,0.72a35.28,35.28,0,0,0-8.62,1.48c-5.62,1.8-6.46,1.41-12.64,2-3.27.39-8.29,0.39-10.67,1.52-1.13.54-2.41,1.81-2.2,2.79s1.93,1.68,6.77,1a5.48,5.48,0,0,1,3.57.36c6.17,0,11.5-1.31,17.63-2.24,2-.32,3.83-0.51,5.57-0.61a9.67,9.67,0,0,1,2.37-.25,38.87,38.87,0,0,0,5.36-.3c1.17-.42,2.31-0.9,3.5-1.3,1.72-.58,3.94-0.52,5.72-0.81,1.53-.27,3.71-1.15,5.41-1.2,1.22-.36,2.44-0.72,3.65-1.1l3.6-1.2,3.53-1.16,3.4-1.16a4.55,4.55,0,0,1,1.48-.84c4-1.53,4.73-3,3.55-3.84S403.45,304.48,399.76,305.35Z"/><path class="cls-1" d="M716.15,160.31a8.84,8.84,0,0,0-4.62-1.85,44.09,44.09,0,0,0-6.36,0c-2.2.13-4.5-.36-6.69,0.55s-3.67-.22-5.9-0.69-4.81.37-7,1.07c-0.53.18-1.19,0.33-1.84,0.47s-1.3.34-1.83,0.51a13.78,13.78,0,0,1-3.16.68c-2.18.16-4.46-.21-6.7-0.27a9.22,9.22,0,0,0-2.9.4c-0.88.28-1.73,0.68-2.77,1.07s-2.39.76-3.43,1.11-2.58.06-3.66,0.29c-2.14.54-4.63,1.48-6.79,1.91a43.88,43.88,0,0,0-6.19,1.21,29.48,29.48,0,0,0-5.8,2.54,55,55,0,0,1-6.34,2.93c-0.85.43-1.68,0.89-2.5,1.36h0c-0.66-.48-2.23-1-5.29-1.36-5.28-.58-9.71-0.27-12.4.94-2.46,1.19-1,2,3.83,2.29,2.71,0.23,5.71.47,8.22,0.55h1.18l-0.18.09-1.41.78c-0.94.51-1.89,1-2.87,1.51s-1.85,1.45-2.81,2-2.13,1.13-3.15,1.54c-2.05.81-4.4,1.64-6.44,2.51s-4,1.48-5.72,2.9-2,3.14-3.63,4.64a56.57,56.57,0,0,1-5.83,4.51c-1.82,1.2-4,2.24-5.83,3.39-0.94.57-1.76,0.66-2.74,1.18s-1.84.63-2.8,1.18a14.59,14.59,0,0,0-4.39,4.27c-0.69.88-1.58,1.91-2.28,2.79s-2.52,1.76-3.28,2.54c-1.53,1.56-2.87,2.91-4.52,4.32-0.82.71-1.55,1.14-2.42,1.8s-1.32,1.43-2.42,1.8a12.16,12.16,0,0,1-2,.41q-2.42,1.55-4.84,3.18c-0.55.58-1,1.28-1.62,1.79a18.3,18.3,0,0,0-2.37,2.18,16.56,16.56,0,0,1-2.71,2.2c-0.82.7-1.54,1.39-2.38,2.06-1.72,1.38-3.4,3.26-5.26,4.46s-3.86,2.44-5.74,3.42-3.55,1.22-5.36,2.36-3.45,2.65-5.22,3.87-4.18,2.11-5.9,3.48-2.8,2.71-4.46,4-3.79,2.41-5.61,3.55-3.73,3-5.8,3.74-4,1.33-6,2.14a28.94,28.94,0,0,0-5.27,2.66,50.81,50.81,0,0,0-5.26,3.92,23.88,23.88,0,0,1-2.42,2.2,17.42,17.42,0,0,1-2,.56,10.29,10.29,0,0,1-2.47.81,0.16,0.16,0,0,1-.16-0.09c-1.57.47-3.06,1-4.49,1.49l-0.23.15a10.72,10.72,0,0,1-3.26,1.31,48.86,48.86,0,0,0-9.48,5.69,8.61,8.61,0,0,1-3.43,1.49,17.68,17.68,0,0,0-3.64.72c-1.4.67-2.86,1.27-4.23,1.84l-1.76.74a25.6,25.6,0,0,0-7.11,5.51,6.25,6.25,0,0,1-2.23,1.52,26.47,26.47,0,0,1-8.36,1.81l-3.91,1.4c-2,.68-4.31.95-6.28,1.79s-3.5,2-5.46,2.86l-0.34.13c-4.05,3.26.76,4.33,7.61,3.39,0.27-.1.54-0.22,0.8-0.3,2.09-.68,3.85-1.28,5.87-2.13,1.43-.62,3.1-1.17,4.64-1.82a17.7,17.7,0,0,1,5.5-3.93,8.78,8.78,0,0,1,2.5-.8,27.27,27.27,0,0,0,10.54-2.93l1.05-.59,0.24-.11a21.82,21.82,0,0,0,4.55-3.47,8.76,8.76,0,0,1,3.94-1.9,46,46,0,0,0,6.26-1.68c0.68-.48,1.36-1,2.11-1.45a31.81,31.81,0,0,1,6.5-2.78,21.44,21.44,0,0,0,3.24-1.3c0.46-.28-0.55-0.42-0.16-0.85s2.81-1.42,3.19-1.89-0.12-.7.33-1a13.52,13.52,0,0,1,1.53-.78,35,35,0,0,1,3.67-1.66c2.14-.59,3.74.11,5.75-0.76s3.53-2.52,5.33-3.79,4.59-2.52,6.36-3.83,3-2.75,5-3.78,4-2,6-2.83,3.74-1.23,5.67-2.16a40.08,40.08,0,0,0,5.19-3.56,15.36,15.36,0,0,0,1.63-2.21,8.62,8.62,0,0,1,4-2.9,28.12,28.12,0,0,0,5.1-2,12.9,12.9,0,0,0,1.18-1c1.57-1.48,3-2.77,4.59-4.17s2.86-3.24,4.63-4.6c0.87-.65,1.91-1.05,2.8-1.68a18,18,0,0,1,2.82-1.73,19.15,19.15,0,0,0,2.94-1.4,31.76,31.76,0,0,0,3.06-2.17c0.79-.76,1.46-1.78,2.19-2.6s0.63-1.74,1.24-2.72a10,10,0,0,1,2.43-2.39c0.82-.71,1.45-1.68,2.31-2.33,1.72-1.31,3.57-2,5.41-3.14a22.71,22.71,0,0,1,2.62-1.5l3.08-1.42c2-.93,3.41-2.68,4.9-4.28,0.75-.8,1.16-1.61,1.92-2.39s3.07-1.53,3.85-2.27c1.56-1.51,2.81-2.88,4.47-4.26s3.27-3.42,5.2-4.43,3.73-1,5.66-2c1-.49,2.06-1,3.12-1.66a16.6,16.6,0,0,0,2.93-1.93c1.63-1.4,1.95-3.21,3.68-4.51,0.85-.67,1.86-1.51,2.77-2.08s2-1.1,3-1.61,2-1,3-1.43l1.52-.66,1.52-.61c2-.81,3.93-2,5.94-2.73s3.85-.39,5.94-0.85a35.49,35.49,0,0,0,6.35-2.17c2-.74,4.64-1.22,6.59-2.12a36.57,36.57,0,0,1,5.42-2.47,17.28,17.28,0,0,1,3.24-.82c1.08-.09,1.89.17,3,0.12,2.15-.11,3.49-0.94,5.54-1.67a37,37,0,0,1,7.29-1.42,9,9,0,0,1,2.59-.36,32.05,32.05,0,0,1,3.59.25,22.18,22.18,0,0,0,3.68.36,13.72,13.72,0,0,0,3.61-.42c2.09-.59,4.57-2.06,6.72-1.34,2.14,0.95,3.37.68,5.5,0.86s4.07,0.91,6.2.85a35.91,35.91,0,0,0,5.14-.28c1.15-.27,1.05-1,1.48-1.56C718.52,161.78,717.28,161.06,716.15,160.31Z"/><path class="cls-1" d="M728,163.35a2.17,2.17,0,0,0-1.7,1.92,2.71,2.71,0,0,0,1.7,2.94"/><path class="cls-1" d="M0,168.21c2.22,0.63,4.25,1.86,6.5,2.34a35.94,35.94,0,0,0,5.47,1c1.27,0,1.33-.75,1.89-1.15,0.79-.56-0.36-1.58-1.38-2.59A10.56,10.56,0,0,0,8,164.85c-2.25-.82-5.69-2-8-1.5"/><path class="cls-1" d="M37.36,181.7c1.27-.67,1.58-1.68-2.11-4-3.18-2-6.09-3.18-8.31-3-2,.22-1.47,1.45,1.41,3.31C31.62,180.12,35.58,182.64,37.36,181.7Z"/></svg>