<?xml version="1.0" encoding="utf-8"?>
<!-- Generator: Adobe Illustrator 21.0.2, SVG Export Plug-In . SVG Version: 6.00 Build 0)  -->
<svg version="1.1" id="Calque_1" xmlns="http://www.w3.org/2000/svg" xmlns:xlink="http://www.w3.org/1999/xlink" x="0px" y="0px"
	 width="56.1px" height="33.5px" viewBox="0 0 56.1 33.5" style="enable-background:new 0 0 56.1 33.5;" xml:space="preserve">
<style type="text/css">
	.st0{fill:#010101;}
</style>
<title>g8</title>
<desc>Created with Sketch.</desc>
<path class="st0" d="M28.4,11.3c-14.1,0-18.8,9.8-18.9,10.2L9.2,22l0.3,0.5c0.2,0.4,5.8,11,18.9,11c13.1,0,18.3-10.6,18.5-11L47,22
	l-0.2-0.5C46.7,21.2,42.5,11.3,28.4,11.3z M41.4,25.9c-0.6-0.4-0.6-0.9-0.6-1.4c0-0.1,0-0.2,0-0.3c0-0.9-1-1.3-1.9-1.3
	c-0.3,0-0.6,0.2-0.6,0.5c0,0.3,0.2,0.6,0.5,0.6c0.3,0,0.7,0.1,0.8,0.2c0,0.1,0,0.1,0,0.2c0,0.5-0.1,1.5,0.9,2.3
	c-0.5,0.4-1.1,0.9-1.7,1.3c-0.3-0.3-0.7-0.6-1.2-0.6c0-0.3,0.2-0.8,0.4-1.2c0.1-0.3,0-0.6-0.3-0.8c-0.3-0.1-0.6,0-0.8,0.3
	c-0.2,0.5-0.8,1.7-0.4,2.4c0.2,0.3,0.5,0.5,0.9,0.5c0.1,0,0.2,0,0.3,0.1c-2.4,1.5-5.6,2.6-9.6,2.6c-4.1,0-7.3-1.1-9.9-2.6v-0.7h2.7
	l-1.3-1c-0.2-0.1-0.6-0.6-0.6-0.9c0-0.3-0.2-0.6-0.5-0.6c-0.3,0-0.6,0.2-0.6,0.5c0,0.3,0.1,0.6,0.2,0.9h-1v1.1c-1.7-1.2-3-2.5-4-3.7
	l0.9-0.8c0,0.1,0.1,0.2,0.2,0.3c0.3,0.6,0.6,0.9,1.1,1c0.1,0,0.2,0,0.2,0c0.5,0,0.9-0.3,1-0.4c0.2-0.2,0.2-0.6,0-0.8
	c-0.2-0.2-0.6-0.3-0.8,0c0,0-0.1,0.1-0.2,0.1c0,0-0.2-0.1-0.3-0.4c-0.1-0.2-0.5-1-1.1-1.1c-0.4,0-0.7,0.1-0.9,0.3l-0.9,0.8
	c-0.4-0.5-0.7-1-0.9-1.3c0.6-1,2.1-3.2,5-5.2l0.5,1.2l-0.9,1.4l0,0.1c-0.2,0.7-0.2,2,0.9,2.4c0.1,0,0.1,0,0.2,0
	c0.2,0,0.5-0.2,0.5-0.4c0.1-0.3-0.1-0.6-0.4-0.7c-0.2-0.1-0.2-0.7-0.2-0.9l1.1-1.7l-0.8-1.8c0,0,0,0,0,0c1.5-0.9,3.4-1.6,5.7-2.1
	c-2.5,1.5-4.3,4.2-4.3,7.2c0,4.7,4,8.5,8.9,8.5S37,26,37,21.3c0-3.1-1.8-5.9-4.5-7.3c4.4,0.8,7.4,2.7,9.2,4.5c0.2,0.2,0.5,0.7,0.4,1
	c0,0.1,0,0.2-0.3,0.3c-1.1,0.6-1.7,0.1-1.8,0.1l-0.4-0.3l-1.2,1.3c-0.2,0.2-0.2,0.6,0,0.8c0.1,0.1,0.2,0.1,0.4,0.1
	c0.2,0,0.3-0.1,0.4-0.2l0.5-0.6c0.5,0.2,1.4,0.4,2.5-0.2c0.4-0.2,0.7-0.5,0.8-0.8c0.6,0.8,1,1.5,1.2,1.9
	C44.1,22.7,43.1,24.3,41.4,25.9z"/>
<path class="st0" d="M28.1,9.7c1,0,1.7-0.9,1.7-2.1V2.1c0-1.2-0.8-2.1-1.7-2.1c-0.5,0-1,0.3-1.3,0.7c-0.3,0.4-0.4,0.9-0.4,1.4v5.5
	C26.4,8.8,27.2,9.7,28.1,9.7z"/>
<path class="st0" d="M55.9,14.7c-0.3-0.5-0.8-0.7-1.4-0.7c-0.4,0-0.8,0.1-1.2,0.4l-4.7,2.9c-0.5,0.3-0.9,0.8-1,1.4
	c-0.1,0.4,0,0.8,0.2,1.2c0.3,0.5,0.8,0.7,1.4,0.7c0.4,0,0.9-0.1,1.2-0.4l4.7-2.9c0.4-0.3,0.8-0.6,0.9-1.1
	C56.2,15.6,56.1,15.1,55.9,14.7z"/>
<path class="st0" d="M7.6,17.2l-4.7-2.9c-0.4-0.2-0.8-0.4-1.2-0.4c-0.6,0-1.1,0.3-1.4,0.7c-0.3,0.4-0.3,1-0.1,1.5
	c0.2,0.4,0.5,0.8,0.9,1.1l4.7,2.9c0.4,0.2,0.8,0.4,1.2,0.4c0.6,0,1.1-0.3,1.4-0.7C9,18.9,8.6,17.8,7.6,17.2z"/>
<path class="st0" d="M14,11.6c0.4,0.7,1.1,1.1,1.7,1.1l0,0c0.3,0,0.6-0.1,0.8-0.2c0.8-0.5,1-1.7,0.4-2.7l-2.9-4.7
	C13.5,4.4,12.8,4,12.2,4c-0.3,0-0.6,0.1-0.8,0.2c-0.8,0.5-1,1.7-0.3,2.7L14,11.6z"/>
<path class="st0" d="M40.2,12.4c0.2,0.1,0.5,0.2,0.8,0.2c0.7,0,1.3-0.4,1.7-1.1l2.9-4.7c0.6-1,0.5-2.2-0.4-2.7
	C45.1,4.1,44.8,4,44.5,4c-0.7,0-1.3,0.4-1.7,1.1l-2.9,4.7C39.2,10.7,39.3,11.9,40.2,12.4z"/>
</svg>
