<?xml version="1.0" encoding="utf-8"?><!DOCTYPE svg PUBLIC "-//W3C//DTD SVG 1.1//EN" "http://www.w3.org/Graphics/SVG/1.1/DTD/svg11.dtd"><svg version="1.1" xmlns="http://www.w3.org/2000/svg" xmlns:xlink="http://www.w3.org/1999/xlink" x="0px" y="0px" viewBox="0 0 100 74.7325" enable-background="new 0 0 100 59.786" xml:space="preserve"><path fill="#010101" d="M50.542,20.208c-25.128,0-33.426,17.433-33.766,18.175l-0.417,0.907l0.458,0.887
	c0.413,0.801,10.379,19.608,33.725,19.609c23.396,0,32.549-18.873,32.927-19.676l0.384-0.816L83.51,38.46
	C83.205,37.714,75.73,20.208,50.542,20.208z M73.864,46.196c-1.14-0.665-1.09-1.589-1.042-2.49c0.01-0.196,0.019-0.378,0.017-0.536
	c-0.017-1.56-1.788-2.237-3.3-2.345c-0.573-0.048-1.052,0.385-1.094,0.946c-0.041,0.563,0.382,1.054,0.945,1.097
	c0.548,0.042,1.204,0.232,1.399,0.398c-0.002,0.101-0.008,0.212-0.015,0.331c-0.048,0.915-0.137,2.727,1.562,4.021
	c-0.896,0.784-1.875,1.562-2.947,2.307c-0.496-0.575-1.163-1.023-2.057-1.089c0.024-0.465,0.326-1.42,0.712-2.195
	c0.253-0.505,0.048-1.12-0.459-1.374c-0.506-0.251-1.119-0.049-1.373,0.459c-0.445,0.89-1.398,3.096-0.628,4.343
	c0.322,0.522,0.871,0.81,1.544,0.81c0.191,0,0.354,0.079,0.499,0.188c-4.359,2.63-9.993,4.622-17.086,4.622
	c-7.268,0-13.081-2.042-17.59-4.723v-1.254h4.796l-2.355-1.833c-0.337-0.262-1.062-1.036-1.026-1.632
	c0.035-0.563-0.395-1.05-0.959-1.085c-0.553-0.027-1.05,0.394-1.085,0.959c-0.035,0.562,0.105,1.085,0.323,1.542h-1.742v1.983
	c-3.068-2.135-5.415-4.503-7.101-6.525l1.666-1.458c0.086,0.106,0.21,0.295,0.357,0.613c0.475,1.028,1.132,1.632,1.955,1.795
	c0.145,0.029,0.284,0.041,0.419,0.041c0.932,0,1.613-0.602,1.697-0.68c0.409-0.38,0.431-1.009,0.06-1.426
	c-0.37-0.417-1.017-0.452-1.439-0.089c-0.083,0.071-0.256,0.16-0.341,0.144c-0.074-0.017-0.272-0.172-0.491-0.644
	c-0.201-0.437-0.812-1.761-2.027-1.9c-0.672-0.068-1.228,0.262-1.541,0.605l-1.583,1.387c-0.697-0.942-1.215-1.74-1.56-2.309
	c1.023-1.774,3.742-5.792,8.92-9.209l0.875,2.073l-1.626,2.469L29.1,34.695c-0.34,1.285-0.388,3.631,1.592,4.274
	c0.105,0.034,0.212,0.05,0.316,0.05c0.432,0,0.834-0.274,0.974-0.708c0.175-0.537-0.119-1.115-0.658-1.29
	c-0.442-0.145-0.371-1.16-0.276-1.657l2.034-3.088l-1.381-3.271c-0.014-0.033-0.042-0.055-0.058-0.085
	c2.761-1.574,6.118-2.933,10.157-3.761c-4.537,2.662-7.576,7.412-7.576,12.835c0,8.324,7.133,15.096,15.902,15.096
	c8.769,0,15.902-6.771,15.902-15.096c0-5.574-3.208-10.441-7.956-13.055c7.853,1.375,13.109,4.783,16.471,8.017
	c0.346,0.421,0.892,1.283,0.788,1.855c-0.019,0.096-0.064,0.351-0.582,0.618c-1.922,0.992-3.108,0.136-3.145,0.11l-0.751-0.601
	l-2.146,2.366c-0.381,0.419-0.35,1.065,0.069,1.446c0.196,0.178,0.442,0.266,0.688,0.266c0.278,0,0.557-0.113,0.758-0.336
	l0.968-1.065c0.916,0.37,2.504,0.663,4.498-0.366c0.791-0.407,1.215-0.931,1.444-1.418c1.086,1.397,1.792,2.599,2.188,3.354
	C78.562,40.52,76.793,43.295,73.864,46.196z"/><path fill="#010101" d="M50.127,17.266c1.713,0,3.056-1.621,3.056-3.691V3.691C53.183,1.621,51.84,0,50.127,0
	c-0.907,0-1.756,0.467-2.331,1.281c-0.469,0.664-0.727,1.521-0.726,2.41v9.884C47.07,15.645,48.413,17.266,50.127,17.266z"/><path fill="#010101" d="M99.606,26.121c-0.518-0.838-1.441-1.318-2.539-1.318c-0.751,0-1.515,0.225-2.206,0.651l-8.415,5.182
	c-0.95,0.583-1.625,1.467-1.854,2.424c-0.178,0.749-0.067,1.501,0.312,2.116c0.516,0.838,1.439,1.318,2.537,1.318
	c0.752,0,1.516-0.226,2.206-0.651l8.417-5.182c0.759-0.466,1.353-1.135,1.672-1.882C100.129,27.862,100.082,26.894,99.606,26.121z"/><path fill="#010101" d="M13.556,30.637l-8.417-5.183c-0.692-0.426-1.455-0.651-2.207-0.651c-1.096,0-2.021,0.48-2.538,1.318
	c-0.476,0.771-0.523,1.74-0.132,2.657c0.319,0.747,0.913,1.416,1.671,1.883l8.417,5.182c0.693,0.426,1.456,0.651,2.208,0.651
	c1.096,0,2.021-0.48,2.539-1.319C15.994,33.713,15.316,31.72,13.556,30.637z"/><path fill="#010101" d="M24.887,20.625c0.739,1.175,1.933,1.905,3.115,1.905c0,0,0,0,0,0c0.516,0,1.013-0.141,1.437-0.408
	c1.448-0.913,1.724-2.999,0.625-4.75l-5.257-8.37c-0.738-1.175-1.932-1.905-3.115-1.905c-0.515,0-1.011,0.141-1.438,0.408
	c-1.45,0.913-1.724,3-0.623,4.75L24.887,20.625z"/><path fill="#010101" d="M71.574,22.124c0.425,0.266,0.922,0.406,1.437,0.406c1.184,0,2.377-0.73,3.115-1.906l5.258-8.37
	c1.099-1.749,0.824-3.835-0.628-4.752c-0.424-0.265-0.92-0.405-1.435-0.405c-1.185,0-2.378,0.73-3.115,1.906l-5.257,8.37
	C69.849,19.125,70.124,21.21,71.574,22.124z"/><text x="0" y="74.786" fill="#000000" font-size="5px" font-weight="bold" font-family="'Helvetica Neue', Helvetica, Arial-Unicode, Arial, Sans-serif">Created by Ayesha Rana</text><text x="0" y="79.786" fill="#000000" font-size="5px" font-weight="bold" font-family="'Helvetica Neue', Helvetica, Arial-Unicode, Arial, Sans-serif">from the Noun Project</text></svg>